<svg xmlns="http://www.w3.org/2000/svg" width="73.166" height="21.09" viewBox="0 0 73.166 21.09">
  <g id="Group_2" data-name="Group 2" transform="translate(-84.373 -170.989)">
    <path id="Path_1" data-name="Path 1" d="M153.119,174.753H155a.214.214,0,0,0,.222-.207V171.2a.216.216,0,0,0-.222-.211h-2.648c-3.061,0-4.686.922-5.612,2.882l-5.758,13.274a1.758,1.758,0,0,1-1.845,1.168V171.2a.218.218,0,0,0-.225-.211h-4.23a.219.219,0,0,0-.225.211v20.509a.384.384,0,0,0,.4.37H139.6c3.06,0,4.46-.923,5.387-2.877l5.683-13.11A2.314,2.314,0,0,1,153.119,174.753Z" fill="#d71921"/>
    <path id="Path_2" data-name="Path 2" d="M101.407,181.536a4.721,4.721,0,0,0,3.105-4.628c0-3.684-3.36-5.919-7.407-5.919H84.6a.217.217,0,0,0-.222.211v3.346a.215.215,0,0,0,.222.207H96.237c1.881,0,3.15,1.081,3.15,2.412s-1.269,2.413-3.15,2.413H89.321v-2.486a.217.217,0,0,0-.222-.21H84.6a.217.217,0,0,0-.222.21v14.777a.217.217,0,0,0,.222.21H96.924c4.608,0,7.907-2.023,7.907-6.147A4.578,4.578,0,0,0,101.407,181.536Zm-4.93,6.869H89.321v-4.946h7.156c1.928,0,3.231,1.109,3.231,2.473S98.4,188.4,96.477,188.4Z" fill="#d71921"/>
    <path id="Path_3" data-name="Path 3" d="M157.5,191.839l-7.252-8.734a.036.036,0,0,0-.065.008l-1.953,4.494a.082.082,0,0,0,.01.083l3.172,4.005a.991.991,0,0,0,.858.384h5.11A.141.141,0,0,0,157.5,191.839Z" fill="#d71921"/>
    <path id="Path_4" data-name="Path 4" d="M112.777,176.882H108.54a.217.217,0,0,0-.222.21v14.777a.216.216,0,0,0,.222.21h4.237a.217.217,0,0,0,.222-.21V177.092A.217.217,0,0,0,112.777,176.882Z" fill="#d71921"/>
    <path id="Path_5" data-name="Path 5" d="M130.2,170.989h-4.234a.216.216,0,0,0-.221.211v17.113a1.753,1.753,0,0,1-1.843-1.168l-5.761-13.274c-.926-1.96-2.551-2.882-5.613-2.882H108.54a.216.216,0,0,0-.222.211v3.346a.214.214,0,0,0,.222.207h3.227a2.315,2.315,0,0,1,2.447,1.339L119.9,189.2c.928,1.954,2.326,2.877,5.388,2.877h4.746a.38.38,0,0,0,.39-.37V171.2A.216.216,0,0,0,130.2,170.989Z" fill="#d71921"/>
  </g>
</svg>
