<svg xmlns="http://www.w3.org/2000/svg" width="399.159" height="103.486" viewBox="0 0 399.159 103.486">
  <g id="Group_9" data-name="Group 9" transform="translate(-273.292 -248.257)">
    <path id="Path_100" data-name="Path 100" d="M488.785,293.479a20.539,20.539,0,0,0-16.869-8c-5.392,0-10.784,2.611-16,7.479V262.173l-11.827,6.434v81.744h11.827v-6.086c4.171,4.869,9.393,7.478,15.477,7.478a21.643,21.643,0,0,0,16.873-7.825c4.87-5.916,7.479-14.088,7.479-24.352,0-11.477-2.437-20.174-6.959-26.087ZM455.74,305.132c4.346-5.565,8.872-8.174,13.914-8.174,9.393,0,13.914,7.652,13.914,23.132,0,13.219-4.346,20-13.393,20-5.393,0-10.089-2.784-14.435-8.349V305.132Z" fill="#17276c" fill-rule="evenodd"/>
    <path id="Path_101" data-name="Path 101" d="M510.354,300.608c4.522-2.781,9.914-4,16-4,7.655,0,11.655,3.652,11.655,10.785v4.7a33.224,33.224,0,0,0-13.564-2.434c-7.48,0-13.222,1.738-17.568,5.042-4.7,3.653-6.955,8.7-6.955,15.479,0,7.307,2.259,12.7,6.955,16.7,3.824,3.3,8.522,4.869,14.264,4.869,6.434,0,12-2.609,16.868-7.653v6.261h11.826V306.7c0-6.956-2.088-12.173-6.435-16q-6-5.215-16.7-5.217c-8.172,0-15.132,1.913-21.044,5.741l4.7,9.39Zm27.653,22.612v9.046c-3.825,5.39-8.871,8.172-14.959,8.172-7.826,0-11.652-3.477-11.652-10.608,0-6.261,4.175-9.392,12.7-9.392a33.567,33.567,0,0,1,13.914,2.782Z" fill="#17276c" fill-rule="evenodd"/>
    <path id="Path_102" data-name="Path 102" d="M574.532,286.694h-12v63.657h12V313.133q0-16.176,12.523-16.175c8.52,0,12.7,5.74,12.7,17.392v36h12.176V313.829c0-18.959-7.481-28.352-22.09-28.352-6.959,0-12.177,2.611-15.306,7.479v-6.262Z" fill="#17276c" fill-rule="evenodd"/>
    <path id="Path_103" data-name="Path 103" d="M655.928,286.694l-12.692,18.612-6.959,10.438.176-53.571-12,6.609v81.568h12V331.569l9.393-12.871,13.563,31.652h13.043l-18.436-42.262L669.5,286.694Z" fill="#17276c" fill-rule="evenodd"/>
    <path id="Path_104" data-name="Path 104" d="M350.341,286.522H337.124v63.829h13.218V286.522Z" fill="#17276c" fill-rule="evenodd"/>
    <path id="Path_105" data-name="Path 105" d="M362.167,286.521v12H373.3v36a18.627,18.627,0,0,0,4,12.173,14.313,14.313,0,0,0,10.434,4.7,20.046,20.046,0,0,0,11.656-2.958h.175l.173-.173,2.781-11.3.175-.872-.7.347c-3.655,2.264-6.609,3.3-9.741,3.3-4,0-6.087-2.258-6.087-7.129V298.523h13.394v-12H386.17v-20l-12.7,6.958H373.3v13.042Z" fill="#17276c" fill-rule="evenodd"/>
    <path id="Path_106" data-name="Path 106" d="M425.65,286.522H412.259v63.829H425.65V286.522Z" fill="#17276c" fill-rule="evenodd"/>
    <path id="Path_107" data-name="Path 107" d="M306.858,285.3c-9.393,0-17.219,2.956-23.48,8.694-6.782,6.088-10.086,14.262-10.086,24.525,0,10.087,3.3,18.437,10.086,24.523,6.261,5.742,14.087,8.7,23.48,8.7,8.872,0,16.522-3.652,22.61-10.955l.176-.177-.176-.173-6.957-8.522-.348-.347-.172.347q-6.786,7.307-15.654,7.307a18.779,18.779,0,0,1-14.262-5.914c-3.653-3.827-5.565-8.7-5.565-14.785s1.912-10.959,5.565-14.784a18.775,18.775,0,0,1,14.262-5.913q8.869,0,15.654,7.3l.172.347.348-.347,6.957-8.524.176-.173-.176-.175c-6.088-7.3-13.738-10.955-22.61-10.955Z" fill="#17276c" fill-rule="evenodd"/>
    <path id="Path_108" data-name="Path 108" d="M343.732,275.912c10.26-10.785,22.785-16.175,37.4-16.175a49.135,49.135,0,0,1,37.218,16.175l.35.173H433.65l-.521-.869a63.406,63.406,0,0,0-22.958-19.827,62.713,62.713,0,0,0-58.092,0,64.893,64.893,0,0,0-22.957,19.827l-.524.869h14.96l.174-.173Z" fill="#e31221" fill-rule="evenodd"/>
  </g>
</svg>
