<svg xmlns="http://www.w3.org/2000/svg" xmlns:xlink="http://www.w3.org/1999/xlink" width="78.27" height="55.302" viewBox="0 0 78.27 55.302">
  <defs>
    <linearGradient id="linear-gradient" x1="-0.017" y1="0.5" x2="1.007" y2="0.5" gradientUnits="objectBoundingBox">
      <stop offset="0.1" stop-color="#006cbb"/>
      <stop offset="0.224" stop-color="#0072c1"/>
      <stop offset="0.396" stop-color="#0084d2"/>
      <stop offset="0.4" stop-color="#0085d3"/>
      <stop offset="0.75" stop-color="#00a88b"/>
      <stop offset="1" stop-color="#70b32f"/>
    </linearGradient>
  </defs>
  <g id="Group_6" data-name="Group 6" transform="translate(-382.854 -367.313)">
    <g id="Group_4" data-name="Group 4">
      <path id="Path_14" data-name="Path 14" d="M421.987,367.313c-23.587,0-39.133,12.379-39.133,27.653s15.546,27.649,39.133,27.649,39.137-12.381,39.137-27.649S445.576,367.313,421.987,367.313Z" fill="#fff"/>
      <path id="Path_15" data-name="Path 15" d="M428.959,405.3c6.721-1.167,29.407-5.835,26.611-18.782-1.005-4.644-5.782-9.751-12.988-13.3a50.539,50.539,0,0,0-20.688-4.1c-21.9,0-37.125,11.573-37.125,25.851,0,9.943,7.392,18.574,19.278,22.895C406.57,411.222,416.611,407.44,428.959,405.3Z" fill="#006cbb"/>
      <path id="Path_16" data-name="Path 16" d="M422.037,409.877c-9.822,1.232-14.326,4.4-17.222,8.255a52.766,52.766,0,0,0,17.079,2.678c21.9,0,37.129-11.57,37.129-25.844a19.951,19.951,0,0,0-.354-3.727C457.94,408,432.777,408.543,422.037,409.877Z" fill="url(#linear-gradient)"/>
    </g>
    <g id="Group_5" data-name="Group 5">
      <path id="Path_17" data-name="Path 17" d="M400.764,381.466H393.42l.085.211a10.671,10.671,0,0,1,.286,3.514c-.008.3-.013,16.955-.013,16.955l.147.005c.033,0,3.344.119,6.484.119,6.56,0,10.967-4.445,10.967-11.061C411.376,385.291,407.212,381.466,400.764,381.466Zm-3.837,1.851c.425-.034,1.719-.128,2.654-.128,5.608,0,8.223,2.718,8.223,8.555,0,6.031-2.322,8.966-7.1,8.966-3.5,0-3.78-.168-3.78-2.24Z" fill="#fff"/>
      <path id="Path_18" data-name="Path 18" d="M431.09,402.01c-.109-1.216-.155-2.041-.155-2.753v-7.243h-3.489l.114.223a5.258,5.258,0,0,1,.354,2.219c0,.05.014,5.033-.126,6.212a12.108,12.108,0,0,1-2.7.3c-5.536,0-8.346-3.179-8.346-9.442,0-4.782,3.162-8.349,7.688-8.677a8.563,8.563,0,0,1,6.117,1.732l.252.219v-2.926l-.121-.023a25.47,25.47,0,0,0-4.779-.569c-7.97,0-12.729,4.195-12.729,11.221,0,7.483,5.811,10.149,11.252,10.149a42.73,42.73,0,0,0,6.542-.476l.138-.023Z" fill="#fff"/>
      <path id="Path_19" data-name="Path 19" d="M443.541,390.792a5.1,5.1,0,0,0,3.905-4.857c0-2.8-2.526-4.469-6.756-4.469h-6.282l.042.186a13.8,13.8,0,0,1,.186,2.74v17.931l.155,0c.021,0,2.469-.049,5.5-.049,5.282,0,8.309-2.293,8.309-6.289C448.6,393.509,446.549,391.436,443.541,390.792Zm-5.772,1.007h1.621c3.745,0,5.638,1.47,5.638,4.368,0,3.057-1.633,4.543-4.994,4.543-1.629,0-2.265-.589-2.265-2.1Zm.011-8.709h2.052c3.231,0,4.606.977,4.606,3.268,0,2.605-1.693,3.819-5.331,3.819h-1.338Z" fill="#fff"/>
    </g>
  </g>
</svg>
