<svg xmlns="http://www.w3.org/2000/svg" width="43.664" height="39.7" viewBox="0 0 43.664 39.7">
  <g id="Group_2" data-name="Group 2" transform="translate(-103.542 -224.003)">
    <path id="Path_8" data-name="Path 8" d="M132.121,247.529a7.208,7.208,0,0,0-.51-1.735,8.547,8.547,0,0,0-3.436-3.979,7.724,7.724,0,0,0-7.96.05,7,7,0,0,0-2.623,2.807,8.141,8.141,0,0,0-.5,1.231,8.635,8.635,0,0,0,.544,6.719,3.4,3.4,0,0,0,1.609,1.4,2.332,2.332,0,0,0,2.082-.162,2.211,2.211,0,0,0,.778-2.331,6.1,6.1,0,0,1,.077-3.248,2.542,2.542,0,0,1,.576-.927,2.2,2.2,0,0,1,.55-.376,2.318,2.318,0,0,1,1.375-.224,2.641,2.641,0,0,1,1.847,1.508,6.135,6.135,0,0,1,.5,2.406,36.225,36.225,0,0,1-1.6,10.769c-.094.357-.191.709-.292,1.063-.08.274-.217.621-.045.888a.694.694,0,0,0,.32.244c.533.216.968-.111,1.325-.472a19.191,19.191,0,0,0,4.382-7.666,24.432,24.432,0,0,0,.841-3.207,14.092,14.092,0,0,0,.161-4.76" fill="#007d7e"/>
    <path id="Path_9" data-name="Path 9" d="M147.206,230.917a.916.916,0,0,0-.991-.879,4.775,4.775,0,0,0-1.481.47c-9.269,3.524-19.722,4.19-29.491,2.785-1.672-.243-3.365-.578-5.045-.841-1.05-.164-2.091-.4-3.151-.482a3.806,3.806,0,0,0-2.759.526,2.919,2.919,0,0,0-.349,3.454,7.788,7.788,0,0,0,3,2.9,7.27,7.27,0,0,0,3.933,1.342q5.6-.355,11.167-1.08c6.327-.823,12.962-1.6,18.9-4.053a23.792,23.792,0,0,0,5.526-3.1c.3-.229.736-.609.736-1.046" fill="#007d7e"/>
    <path id="Path_10" data-name="Path 10" d="M120.622,227.74a3.646,3.646,0,0,0,7.293,0,2.033,2.033,0,0,0-.2-.872c-.312-.663-.664-.986-.626-1.778.044-1.073-1.328-1.087-2.069-1.087a5.35,5.35,0,0,0-2.388.477,3.694,3.694,0,0,0-1.431,1.289,3.636,3.636,0,0,0-.58,1.887c0,.029,0,.057,0,.084" fill="#d50049"/>
  </g>
</svg>
