<svg xmlns="http://www.w3.org/2000/svg" width="47.925" height="38.656" viewBox="0 0 47.925 38.656">
  <g id="Group_142" data-name="Group 142" transform="translate(-661.503 -98.549)">
    <path id="Path_298" data-name="Path 298" d="M703.985,117.349a3,3,0,0,0-3.921,1.618L694.2,133.052a3,3,0,0,0,5.539,2.3l5.864-14.084a3,3,0,0,0-1.618-3.922" fill="#003e92"/>
    <path id="Path_299" data-name="Path 299" d="M696.981,115.5a3,3,0,1,0,0-6h-1.854l2.829-6.8a3,3,0,0,0-5.535-2.3l-3.791,9.1h-6.366l2.831-6.8a3,3,0,0,0-5.535-2.3l-3.791,9.1c-1.5.019-7.965.3-11.671,3.979a8.678,8.678,0,0,0-2.6,6.3,8.085,8.085,0,0,0,6.429,7.906c3.744.77,7.252-1.278,8.939-5.219l0,0a.032.032,0,0,1,.01-.019l2.887-6.942h6.368l-2.354,5.75a3,3,0,0,0,5.538,2.305l3.309-8.055Zm-27.843,6.314a2.1,2.1,0,0,1-1.639-2.035,2.649,2.649,0,0,1,.814-2.029,9.407,9.407,0,0,1,4.852-1.986l-1.818,4.373s0,0,0,.009c-.4.893-1.09,1.9-2.206,1.668" fill="#003e92"/>
    <path id="Path_300" data-name="Path 300" d="M709.427,112.676a3.539,3.539,0,1,1-3.448-3.629,3.537,3.537,0,0,1,3.448,3.629" fill="#e40048"/>
  </g>
</svg>
