<svg xmlns="http://www.w3.org/2000/svg" width="29.572" height="28.646" viewBox="0 0 29.572 28.646">
  <g id="Group_29" data-name="Group 29" transform="translate(-18.512 -514.674)">
    <path id="Path_63" data-name="Path 63" d="M25.708,515.029a3.321,3.321,0,0,0-1.677,1.934l-5.346,16.069A3.342,3.342,0,0,0,20.8,537.26l17.534,5.887a3.347,3.347,0,0,0,4.23-2.116l5.347-16.067a3.352,3.352,0,0,0-2.116-4.233l-17.534-5.885a3.328,3.328,0,0,0-2.554.183" fill="#fff"/>
    <path id="Path_64" data-name="Path 64" d="M34.278,530.464a9.178,9.178,0,0,1-3.517,2.452l-.792.308v-7.448l.782.3a9.178,9.178,0,0,1,3.525,2.443,8.053,8.053,0,0,0-3.9-11.737l-2.531-.843a2.164,2.164,0,0,0-2.738,1.389L19.746,533.41a2.2,2.2,0,0,0,1.4,2.763l12.171,4.063a8.057,8.057,0,0,0,.956-9.772m-7.037,3.218H26.034v-8.349h1.207Z" fill="#008ad3"/>
    <path id="Path_65" data-name="Path 65" d="M33.574,529.493a8.1,8.1,0,0,0-2.446-1.955v3.922a8.038,8.038,0,0,0,2.446-1.967" fill="#ec4315"/>
    <path id="Path_66" data-name="Path 66" d="M45.408,521.8,34.24,518.074a9.2,9.2,0,0,1,.808,11.419,9.194,9.194,0,0,1-.532,11.144l4.2,1.4a2.167,2.167,0,0,0,2.737-1.393l5.364-16.077a2.2,2.2,0,0,0-1.406-2.764m-2.96,11.848-1.508.007-3.1-4.177,3.15-4.174,1.521-.005-3.156,4.185Z" fill="#004593"/>
  </g>
</svg>
