<svg xmlns="http://www.w3.org/2000/svg" width="94.581" height="94.581" viewBox="0 0 94.581 94.581">
  <g id="Group_3" data-name="Group 3" transform="translate(-373.654 -621.396)">
    <path id="Path_20" data-name="Path 20" d="M373.654,621.4l23.636,23.654L420.945,621.4Z" fill="#0080c8"/>
    <path id="Path_21" data-name="Path 21" d="M373.654,621.4v47.29l23.636-23.636Z" fill="#008cd1"/>
    <path id="Path_22" data-name="Path 22" d="M420.944,668.687l-23.636-23.654-23.654,23.654Z" fill="#0080c8"/>
    <path id="Path_23" data-name="Path 23" d="M420.944,668.687V621.4l-23.636,23.636Z" fill="#0071bf"/>
    <path id="Path_24" data-name="Path 24" d="M420.944,621.4v47.29l23.635-23.636Z" fill="#005fae"/>
    <path id="Path_25" data-name="Path 25" d="M468.234,668.687,444.6,645.032l-23.654,23.654Z" fill="#003c87"/>
    <path id="Path_26" data-name="Path 26" d="M373.654,668.687l23.636,23.654,23.654-23.654Z" fill="#0071bf"/>
    <path id="Path_27" data-name="Path 27" d="M373.654,668.687v47.29l23.636-23.636Z" fill="#005fae"/>
    <path id="Path_28" data-name="Path 28" d="M420.944,715.977l-23.636-23.654-23.654,23.654Z" fill="#004fa1"/>
    <path id="Path_29" data-name="Path 29" d="M420.944,715.977v-47.29l-23.636,23.636Z" fill="#00428c"/>
    <path id="Path_30" data-name="Path 30" d="M420.944,668.687l23.636,23.654,23.654-23.654Z" fill="#002b79"/>
    <path id="Path_31" data-name="Path 31" d="M420.944,668.687v47.29l23.636-23.636Z" fill="#003c87"/>
    <path id="Path_32" data-name="Path 32" d="M468.234,715.977,444.6,692.323l-23.654,23.654Z" fill="#002b79"/>
    <path id="Path_33" data-name="Path 33" d="M468.234,715.977v-47.29L444.6,692.323Z" fill="#002b79"/>
    <path id="Path_34" data-name="Path 34" d="M420.944,621.4l23.636,23.654L468.235,621.4Z" fill="#004fa1"/>
    <path id="Path_35" data-name="Path 35" d="M468.234,668.687V621.4L444.6,645.032Z" fill="#00428c"/>
    <path id="Path_36" data-name="Path 36" d="M468.234,680.517l-30.279-28.842L392,697.744l16.763,16.763,29.19-28.748,30.279,30.115Z" fill="#fff"/>
  </g>
</svg>
