<svg xmlns="http://www.w3.org/2000/svg" width="192.942" height="80.392" viewBox="0 0 192.942 80.392">
  <g id="Group_11" data-name="Group 11" transform="translate(-324.211 -236.968)">
    <g id="Group_7" data-name="Group 7">
      <path id="Path_75" data-name="Path 75" d="M476.957,317.36H364.408a40.2,40.2,0,1,1,0-80.392H476.957a40.2,40.2,0,1,1,0,80.392" fill="#ffeb00" fill-rule="evenodd"/>
    </g>
    <g id="Group_10" data-name="Group 10">
      <g id="Group_9" data-name="Group 9">
        <g id="Group_8" data-name="Group 8">
          <path id="Path_76" data-name="Path 76" d="M369.355,256.262c-12.114,0-21.937,7.756-21.937,17.329,0,6.149,4.068,11.548,10.178,14.629l-2.067,7.717a.639.639,0,0,0,.158.658.605.605,0,0,0,.829.04l8.889-6.005a27.961,27.961,0,0,0,3.95.29c12.115,0,21.939-7.756,21.939-17.329S381.47,256.262,369.355,256.262Z" fill-rule="evenodd"/>
        </g>
      </g>
      <path id="Path_77" data-name="Path 77" d="M409.778,287.983v11.189h-7.969V257.908h5.622l.982,2.62a11.316,11.316,0,0,1,8.406-3.493c7.8,0,11.517,5.84,11.462,15.283,0,9.879-5.731,16.211-13.918,16.211A17.455,17.455,0,0,1,409.778,287.983Zm0-23.416v17.849a23.238,23.238,0,0,0,2.565.163c5.677,0,7.861-3.984,7.861-10.261,0-5.513-1.475-8.842-6.005-8.842A10.363,10.363,0,0,0,409.778,264.567Z"/>
      <path id="Path_78" data-name="Path 78" d="M445.634,269.534h4.531v-.982c0-3.275-1.856-4.8-5.076-4.8a19.975,19.975,0,0,0-8.188,1.965l-2.183-5.349a20.861,20.861,0,0,1,11.081-3.329c7.64,0,11.789,4.039,11.789,11.735v18.94h-5.622l-.818-2.511c-3.221,2.347-6.168,3.33-8.843,3.33-5.84,0-9.115-3.493-9.115-9.388C433.19,272.864,437.557,269.534,445.634,269.534Zm4.531,10.535V274.61h-3.657c-4.094,0-6.168,1.474-6.168,4.421,0,2.238,1.147,3.33,3.493,3.33A10.99,10.99,0,0,0,450.165,280.069Z"/>
      <path id="Path_79" data-name="Path 79" d="M481.712,284.653c-2.784,7.424-6.113,12.827-10.971,15.829l-4.913-4.53a27.573,27.573,0,0,0,6.605-8.078L461.844,259l7.914-2.129,6.768,23.416,6.714-23.525,7.805,2.183Z"/>
    </g>
  </g>
</svg>
