<svg xmlns="http://www.w3.org/2000/svg" width="85.171" height="60.673" viewBox="0 0 85.171 60.673">
  <path id="Path_12" data-name="Path 12" d="M182.313,354.118l-.741-.467c-2.512-2.508-6.01-3.6-10.686-3.326a20.109,20.109,0,0,0-9.339,3.22c0-.037,0-.07,0-.107a37.66,37.66,0,0,1,.274-3.825,37.516,37.516,0,0,0,.279-3.89,9.074,9.074,0,0,0-.589-3.538.686.686,0,0,0-.666-.426,10.186,10.186,0,0,0-4.31,1.411l-.325.71c-.024,1.391-.328,5.282-.635,5.754.011-.018-.169.469-.169.469a70.267,70.267,0,0,0-.049,14.632c.055.416.862,1.052,1.485,1.278.68.253,2.822-.32,4.053-.788-.011,0,.468-.07.468-.07a.7.7,0,0,0,.6-.815c0-.008.028-1.207.028-1.207.893-3.621,4.5-7.934,8.76-8.587a6.06,6.06,0,0,1,5.816,1.876c.205.293.643,2.9-.946,5.89a12.2,12.2,0,0,1-6.657,5.252,25.561,25.561,0,0,1-10.19,1.428c-.162-.108-3.747-2.531-3.747-2.531-3.168-2.226-7.108-5-10.687-6.357a12.621,12.621,0,0,1-2.427-1.731l-.37-.3c-2.061-1.654-5.982-4.267-9.135-6.367,0,0-1.421-.953-1.7-1.137l.01-.356c.09-.1,2.066-1.287,2.066-1.287,2.772-1.62,4.053-2.415,4.327-2.826-.056.064.369-.219.369-.219.021-.01,6.868-3.885,6.868-3.885,6.592-3.627,14.067-7.737,17.99-11.8,0-.005.191-.619.191-.619l.085-.553a3.849,3.849,0,0,0,.06-2.309.745.745,0,0,0-.532-.525c-3.063-.3-7.018,1.534-10.615,4.9a9.4,9.4,0,0,1-2.214,1.529l-.55.307c-3.967,2.254-12.9,7.8-17.577,10.792a158.185,158.185,0,0,1,2.38-18.149l-.126-.712c-.014-.025-.482-.9-.482-.9l-.367-.648-.106-.027a2.926,2.926,0,0,0-2.254-.135l-.937.342-1.242.452a.683.683,0,0,0-.52.439c-2.232,5.4-4.1,14.278-4.534,21.383a107.586,107.586,0,0,0-10.612-5.869l-.06-.03-.243-.053a7.536,7.536,0,0,1-2.471-1.149c-.084-.052-1.693-1.1-1.693-1.1l-2.6-1.66c.026.014-.68-.156-.68-.156a8.1,8.1,0,0,0-3.888,2.606.732.732,0,0,0-.117.419,2.309,2.309,0,0,0,.117.611l.116.531.12.319a37.217,37.217,0,0,0,7.456,5.054l3.566,1.889,5.457,2.982c0,.025.935.736.935.736l.643.373s.069.041.11.071c-1.454.973-9.922,6.631-9.922,6.631l-5.224,3.457A29.991,29.991,0,0,1,101,362.873a4.3,4.3,0,0,0-2.346,1.936l-.138.3.14.2.4.3c-.015,0,.538.35.538.35l.573.395c.014.006.546.082.546.082.916.037,2.277-.486,4.818-1.6,2.333-1.035,8.674-4.858,11.383-6.491l1.157-.7a2.54,2.54,0,0,0,1.473-.72,14.511,14.511,0,0,1,2.45-1.476c.019-.008.434-.237.817-.451,0,.122-.007.312-.007.312a111.016,111.016,0,0,0,1.5,18.962l.018.084.087.185a20.625,20.625,0,0,1,1.4,4.356l1.035,3.459c.02.039.293.326.293.326a6.87,6.87,0,0,0,3.585.947l.3-.037.19-.422a8.179,8.179,0,0,0,.136-1.584c0-.633-.046-1.332-.1-2.183l-.08-1.25c-.379-5.788-.76-14.15-.76-19.7,0-.156,0-.294,0-.443.98.619,5.285,3.329,5.285,3.329,7.32,4.749,18.378,11.926,25.061,13.823a.985.985,0,0,0,.97-.222c.01-.011,1.031-.66,1.031-.66l.187-.078a1.853,1.853,0,0,0,.69-1.534c5.632-.281,13.49-2.449,17.693-7.735a11.016,11.016,0,0,0,2.36-6.709,5.687,5.687,0,0,0-1.375-4.111" transform="translate(-98.517 -322.984)" fill="#ffa600"/>
</svg>
