<svg xmlns="http://www.w3.org/2000/svg" width="198.425" height="198.425" viewBox="0 0 198.425 198.425">
  <g id="Group_10" data-name="Group 10" transform="translate(-529.449 -123.112)">
    <rect id="Rectangle_3" data-name="Rectangle 3" width="198.425" height="198.425" transform="translate(529.449 123.112)" fill="#001345"/>
    <g id="Group_9" data-name="Group 9">
      <g id="Group_8" data-name="Group 8">
        <path id="Path_112" data-name="Path 112" d="M599.221,265.22h-5.994l-9.466,11.018V265.22h-4.784v24.039h4.784V278.212l9.779,11.047h5.994l-10.64-12.02Z" fill="#fff"/>
        <path id="Path_113" data-name="Path 113" d="M611,272.044a7.938,7.938,0,0,0-5.141,2.057V265.22h-4.784v15.834c0,4.765,3.153,8.756,9.086,8.756,5.333,0,9.086-3.683,9.086-8.847C619.247,276.077,616.018,272.044,611,272.044Zm-.839,13.433a4.549,4.549,0,0,1-4.547-4.423c0-.043,0-.084,0-.127a4.549,4.549,0,1,1,4.55,4.55Z" fill="#fff"/>
        <path id="Path_114" data-name="Path 114" d="M653.071,272.044a8.031,8.031,0,0,0-5.518,2.109v-1.585h-4.785v16.7h4.785V279.9a3.528,3.528,0,0,1,7.056,0v9.363h4.815v-10.7c0-.065,0-.13,0-.194A6.376,6.376,0,0,0,653.071,272.044Z" fill="#fff"/>
        <path id="Path_115" data-name="Path 115" d="M630.7,272.058c-5.393,0-9.187,3.683-9.187,8.846,0,4.886,3.264,8.919,8.338,8.919a7.366,7.366,0,0,0,5.709-2.866v2.311h4.326v-8.359h-.038c.025-.061.038-.1.038-.1C639.885,276.048,636.7,272.058,630.7,272.058Zm.1,13.395a4.55,4.55,0,1,1,4.55-4.55A4.55,4.55,0,0,1,630.8,285.453Z" fill="#fff"/>
        <path id="Path_116" data-name="Path 116" d="M678.348,289.045l-7.165-8.288,6.949-8.288h-5.143l-6.059,7.173v-14.56H662.16v23.963h4.769v-7.191l6.173,7.191Z" fill="#fff"/>
      </g>
      <path id="Path_117" data-name="Path 117" d="M658.282,170.078l-29.62,22.63-29.62-22.63-19.965-15.253v96.49h19.965V194.7l29.62,22.97,29.62-22.97v56.614h19.965v-96.49Z" fill="#c5ce00"/>
    </g>
  </g>
</svg>
