<svg xmlns="http://www.w3.org/2000/svg" width="56.045" height="13.957" viewBox="0 0 56.045 13.957">
  <g id="Group_53" data-name="Group 53" transform="translate(-639.463 -436.551)">
    <path id="Path_234" data-name="Path 234" d="M665.865,445.138c.141,0,.389.118.727.485a22.249,22.249,0,0,0,5.391,4.33c.238.132.371.229.371.354,0,.094-.014.19-.221.19a14.811,14.811,0,0,1-3.02-.673c-.555-.26-1.751-1.231-3.178-3.689a1.766,1.766,0,0,1-.332-.74A.253.253,0,0,1,665.865,445.138Z" fill="#488ac9"/>
    <path id="Path_235" data-name="Path 235" d="M670.6,438.112s.347.685-3.033,1.161l.612-1.731a.706.706,0,0,0-.618-.991.864.864,0,0,0-.749.605l-1.005,2.3a17.755,17.755,0,0,1-2.736,0c-.613-.061-.77.279-.77.625,0,.6,1.064,1.217,1.744,1.15.43-.04.679-.059,1.028-.094l-3.737,8.542c-.142.319-.257.831.384.831s2.086-.586,2.327-1.265c.1-.286.846-2.4,1.676-4.746a22.718,22.718,0,0,1,2.339-.313c.4,0,.6.179.6.391,0,.492-1.18,1.9-3.466,3.643-.252.191-.044.342.085.342a11.934,11.934,0,0,0,2.71-1.669c.858-.648,2.355-2.334,2.355-3.519,0-.467-.207-.9-1.145-.9-.908,0-2.513.2-2.855.246.222-.631.442-1.25.646-1.829,1.769-.245,2.824-.4,3.445-.534.855-.181,1.542-.673,1.542-1.18C671.986,438.1,670.6,438.112,670.6,438.112Z" fill="#512000"/>
    <path id="Path_236" data-name="Path 236" d="M640.537,443.459h-1.074v-1.064h1.074v-1.417h1.456v1.417h1.377v1.064h-1.377v2.6c0,.479.129.923.683.923a1.3,1.3,0,0,0,.662-.152l.044,1.15a3.71,3.71,0,0,1-1.076.132,1.645,1.645,0,0,1-1.769-1.814Z" fill="#512000"/>
    <path id="Path_237" data-name="Path 237" d="M644.478,442.395h1.292v1.27h.023a1.71,1.71,0,0,1,1.529-1.4,1.574,1.574,0,0,1,.446.044v1.466a1.479,1.479,0,0,0-.652-.12c-1.183,0-1.183,1.477-1.183,2.279v2.052h-1.455Z" fill="#512000"/>
    <path id="Path_238" data-name="Path 238" d="M653.8,447.985h-1.379v-.758H652.4a2.335,2.335,0,0,1-1.836.89c-1.323,0-1.9-.934-1.9-2.194v-3.528h1.454v2.983c0,.686.01,1.609.945,1.609,1.052,0,1.282-1.141,1.282-1.856v-2.736H653.8Z" fill="#512000"/>
    <path id="Path_239" data-name="Path 239" d="M659.573,447.67a3.836,3.836,0,0,1-1.923.447,2.656,2.656,0,0,1-2.919-2.9c0-1.619.856-2.954,2.594-2.954,2.075,0,2.661,1.422,2.661,3.377H656.12a1.462,1.462,0,0,0,1.6,1.412,3.784,3.784,0,0,0,1.857-.565v1.182m-.978-3.028c-.043-.7-.369-1.314-1.181-1.314a1.268,1.268,0,0,0-1.294,1.314Z" fill="#512000"/>
    <path id="Path_240" data-name="Path 240" d="M671.372,442.477h1.292v1.268h.021a1.712,1.712,0,0,1,1.531-1.4,1.6,1.6,0,0,1,.445.043v1.466a1.467,1.467,0,0,0-.651-.119c-1.184,0-1.184,1.475-1.184,2.278v2.053h-1.454Z" fill="#512000"/>
    <path id="Path_241" data-name="Path 241" d="M675.505,440.15h1.456v1.39h-1.456v-1.39m0,2.327h1.456v5.59h-1.456Z" fill="#512000"/>
    <path id="Path_242" data-name="Path 242" d="M682.718,447.753a3.836,3.836,0,0,1-1.921.446,2.658,2.658,0,0,1-2.921-2.9c0-1.619.858-2.954,2.6-2.954,2.074,0,2.659,1.421,2.659,3.376h-3.863a1.461,1.461,0,0,0,1.6,1.411,3.765,3.765,0,0,0,1.855-.563v1.183m-.975-3.028c-.045-.707-.371-1.315-1.184-1.315a1.267,1.267,0,0,0-1.292,1.315Z" fill="#512000"/>
    <path id="Path_243" data-name="Path 243" d="M683.993,442.477h1.379v.76h.022a2.088,2.088,0,0,1,1.835-.891c1.325,0,1.9.934,1.9,2.2v3.525h-1.456v-2.985c0-.685-.011-1.607-.944-1.607-1.052,0-1.28,1.138-1.28,1.857v2.735h-1.457Z" fill="#512000"/>
    <path id="Path_244" data-name="Path 244" d="M694.1,447.437h-.023a2.076,2.076,0,0,1-1.715.762c-1.715,0-2.345-1.413-2.345-2.943s.63-2.91,2.345-2.91a1.986,1.986,0,0,1,1.672.782h.021v-3.2h1.456v8.142H694.1v-.63m-1.337-.368c.967,0,1.281-1.02,1.281-1.813s-.368-1.781-1.3-1.781-1.2,1.031-1.2,1.781C691.535,446.026,691.8,447.069,692.76,447.069Z" fill="#512000"/>
  </g>
</svg>
