<svg xmlns="http://www.w3.org/2000/svg" xmlns:xlink="http://www.w3.org/1999/xlink" width="24.073" height="19.196" viewBox="0 0 24.073 19.196">
  <defs>
    <clipPath id="clip-path">
      <rect width="24.073" height="19.196" fill="none"/>
    </clipPath>
  </defs>
  <g id="Repeat_Grid_1" data-name="Repeat Grid 1" clip-path="url(#clip-path)">
    <g transform="translate(-69.976 -85.764)">
      <path id="Path_755" data-name="Path 755" d="M93.172,90.247a3.184,3.184,0,0,0-4.556.246c-1.593,1.672-2.831,2.3-4.309,2.234-2.059-.09-3.077-1.683-4.134-3.693a5.437,5.437,0,0,0-4.9-3.27c-3.314,0-5.3,2.684-5.3,5.676a9.7,9.7,0,0,0,5.479,8.516,13.375,13.375,0,0,0,5.775,1.422,17.431,17.431,0,0,1-.79,3.582h3.79a17.147,17.147,0,0,1-.806-3.705c5.553-.721,8.192-3.243,9.635-5.643a6.073,6.073,0,0,0,.99-3.131,3.067,3.067,0,0,0-.877-2.234M75.3,93.126a1.94,1.94,0,1,1,1.806-2.057A1.942,1.942,0,0,1,75.3,93.126" fill="#69a52b"/>
    </g>
  </g>
</svg>
