<svg xmlns="http://www.w3.org/2000/svg" width="59.573" height="17.398" viewBox="0 0 59.573 17.398">
  <g id="Group_113" data-name="Group 113" transform="translate(-18.512 -388.356)">
    <rect id="Rectangle_33" data-name="Rectangle 33" width="59.573" height="6.467" transform="translate(18.512 388.356)" fill="#d60018"/>
    <path id="Path_658" data-name="Path 658" d="M57.364,391.938a1.9,1.9,0,1,1-1.9-1.889A1.9,1.9,0,0,1,57.364,391.938Z" fill="#fff"/>
    <path id="Path_659" data-name="Path 659" d="M78.083,396.306v2.868l-4.555,4.061h4.557v2.519H69.358v-2.87l4.628-4.143H69.35v-2.435Z" fill="#1a1818"/>
    <path id="Path_660" data-name="Path 660" d="M18.512,396.3h5.366l1.234,5.174h.024l1.221-5.174h5.351v9.458H28.456L28.4,398.33h-.026l-1.855,7.424H23.5l-1.8-7.424h-.055l-.042,7.424H18.512Z" fill="#1a1818"/>
    <path id="Path_661" data-name="Path 661" d="M33.12,396.3h8.193v2.278H36.669v1.341h4.443v2.275H36.669v1.286h4.742v2.278H33.12Z" fill="#1a1818"/>
    <path id="Path_662" data-name="Path 662" d="M68.343,399.088h-3.2v6.666h-3.63v-6.666h-3.2V396.3H68.343Z" fill="#1a1818"/>
    <path id="Path_663" data-name="Path 663" d="M46.132,398.412h1c.731,0,1.424.119,1.424.974,0,.962-.732,1.042-1.476,1.042h-.949Zm-3.468,7.342h3.63v-3.21h.814c.448,0,.813.053,1.029.488a16.789,16.789,0,0,1,.5,2.722h3.778c-.381-.921-.339-2.385-.9-3.388a2.287,2.287,0,0,0-1.6-1.018v-.026a2.487,2.487,0,0,0,2.263-2.506c0-1.814-1.394-2.52-3.658-2.52H42.664Z" fill="#1a1818"/>
    <path id="Path_664" data-name="Path 664" d="M57.259,396.3v9.458H53.627V396.3Z" fill="#1a1818"/>
  </g>
</svg>
