<svg xmlns="http://www.w3.org/2000/svg" width="138.177" height="32.462" viewBox="0 0 138.177 32.462">
  <g id="Group_139" data-name="Group 139" transform="translate(-18.512 -430.87)">
    <path id="Path_623" data-name="Path 623" d="M38.982,448.828c-.126.852-1.855,12.924-2.016,14.05h3.868c.121-.853,1.853-12.927,2.017-14.05Z" fill="#003368"/>
    <path id="Path_624" data-name="Path 624" d="M70.651,448.828c-.122.852-1.853,12.924-2.014,14.05h9.074c.085-.618.317-2.247.431-3.034h-5.5l.372-2.6H78c.087-.6.3-2.063.408-2.831h-4.99l.37-2.561h5.349c.091-.616.323-2.244.437-3.027Z" fill="#003368"/>
    <path id="Path_625" data-name="Path 625" d="M27.549,456.877s3.235-7.405,3.491-8.049h4.87c0,.983-.649,13.052-.64,14.05H31.765l.579-9.84s-3.943,9.211-4.206,9.84h-2.77l-1.244-9.84c-.09.447-1.405,7.017-2.122,9.84h-3.49c.365-1.253,3.034-13.331,3.243-14.05h4.692Z" fill="#003368"/>
    <path id="Path_626" data-name="Path 626" d="M63.848,460.034s.252,2.288.337,2.844H67.9c-.207-1.159-2.231-13.229-2.382-14.05H60.82c-.271.586-5.632,12.667-6.267,14.05h3.766c.2-.474,1.158-2.843,1.158-2.843Zm-3.31-2.9,2.216-5.214.724,5.214Z" fill="#003368"/>
    <path id="Path_627" data-name="Path 627" d="M48.245,451.463h.863a2.1,2.1,0,0,1,1.66.537,1.706,1.706,0,0,1,.307,1.406s-.12,1.075-.824,1.415a2.683,2.683,0,0,1-1.294.337H47.208l3.3,7.719h3.754l-2.839-5.922c1.721-.317,3.064-.828,3.4-3.495a7.112,7.112,0,0,0,.074-.955,3.5,3.5,0,0,0-.773-2.377,4.906,4.906,0,0,0-3.715-1.3H45.108c-.124.852-1.852,12.924-2.019,14.049h3.527c.116-.786,1.629-11.414,1.629-11.414" fill="#003368"/>
    <path id="Path_628" data-name="Path 628" d="M156.689,430.87c-2.257,9.347-10.363,14.443-15.129,17.164l-.205-.275c1.959-1.589,8.663-6.539,10.806-14.738Z" fill="#f36a10"/>
    <path id="Path_629" data-name="Path 629" d="M119.144,455.421h0c-.04.008-.081.013-.122.021.038-.008.082-.013.122-.021" fill="#003368"/>
    <path id="Path_630" data-name="Path 630" d="M124.217,454.416c.068-.017.137-.033.206-.048l-.215.048Z" fill="#003368"/>
    <path id="Path_631" data-name="Path 631" d="M118.042,455.6l-.242.038.242-.038" fill="#003368"/>
    <path id="Path_632" data-name="Path 632" d="M125.709,454.062c-.27.066-.54.131-.814.195.274-.064.544-.129.814-.195" fill="#003368"/>
    <path id="Path_633" data-name="Path 633" d="M116.677,455.811c.024,0,.05-.009.077-.012-.027,0-.053.009-.077.012" fill="#003368"/>
    <path id="Path_634" data-name="Path 634" d="M127.56,453.59c-.17.046-.338.089-.51.134.172-.045.34-.088.51-.134" fill="#003368"/>
    <path id="Path_635" data-name="Path 635" d="M110.607,456.517h0a.145.145,0,0,0-.029,0,.15.15,0,0,1,.029,0" fill="#003368"/>
    <path id="Path_636" data-name="Path 636" d="M131.834,452.322h0c-.389.127-.786.253-1.195.381.409-.128.811-.254,1.2-.381" fill="#003368"/>
    <path id="Path_637" data-name="Path 637" d="M130.386,452.778c-.163.052-.33.1-.5.151.167-.05.334-.1.5-.151" fill="#003368"/>
    <path id="Path_638" data-name="Path 638" d="M129.622,453.009c-.557.164-1.136.328-1.731.491.595-.163,1.174-.327,1.731-.491" fill="#003368"/>
    <path id="Path_639" data-name="Path 639" d="M126.679,453.823c-.172.041-.338.082-.509.128.171-.046.337-.087.509-.128" fill="#003368"/>
    <path id="Path_640" data-name="Path 640" d="M94.234,456.772h.032a.113.113,0,0,1-.032,0Z" fill="#003368"/>
    <path id="Path_641" data-name="Path 641" d="M100.674,456.944h0" fill="#003368"/>
    <path id="Path_642" data-name="Path 642" d="M99.252,456.935c-.09,0-.18,0-.27,0,.09,0,.18,0,.27,0" fill="#003368"/>
    <path id="Path_643" data-name="Path 643" d="M109.6,456.6l-.1.009.1-.009" fill="#003368"/>
    <path id="Path_644" data-name="Path 644" d="M107.388,456.749c-.026,0-.05,0-.077.007.027,0,.051-.005.077-.007" fill="#003368"/>
    <path id="Path_645" data-name="Path 645" d="M108.5,456.681c-.032,0-.064,0-.093.005.029,0,.061-.005.093-.005" fill="#003368"/>
    <path id="Path_646" data-name="Path 646" d="M106.217,456.812c.014,0,.025,0,.038,0a.166.166,0,0,0-.038,0" fill="#003368"/>
    <path id="Path_647" data-name="Path 647" d="M114.734,454.355c-.025-.01-1.023-.512-1.023-.512l-.013,0-.014-.009c-.329-.189-1.1-.638-1.1-1.392a1.155,1.155,0,0,1,.4-.9,1.617,1.617,0,0,1,1.336-.272,4.908,4.908,0,0,1,2.265,1.255c.4-.767,1.162-2.227,1.434-2.752a6.514,6.514,0,0,0-3.282-1.463,6.075,6.075,0,0,0-4.534.994,4.578,4.578,0,0,0-1.751,3.176,5.572,5.572,0,0,0-.039.658,3.7,3.7,0,0,0,.46,1.894c2.093-.048,4.294-.151,6.517-.333a6.553,6.553,0,0,0-.66-.341" fill="#003368"/>
    <path id="Path_648" data-name="Path 648" d="M130.4,448.828c-.083.588-.356,2.436-.486,3.34a55.818,55.818,0,0,0,9.087-3.34Z" fill="#003368"/>
    <path id="Path_649" data-name="Path 649" d="M131.831,452.322h0c-.384.127-.785.253-1.195.381l-.25.075c-.163.052-.33.1-.5.151-.089.028-.178.052-.266.08-.557.164-1.136.328-1.731.489-.108.03-.22.063-.331.092-.17.046-.338.089-.51.134l-.371.1c-.172.041-.338.083-.511.128-.15.037-.305.076-.459.111-.27.066-.54.131-.814.195-.159.038-.311.077-.472.111-.069.015-.138.031-.206.048h-.007c-1.587.36-3.275.7-5.066,1.005-.041.008-.082.013-.122.021-.322.055-.65.106-.98.16-.082.014-.16.025-.242.038-.346.053-.695.107-1.046.158-.027,0-.053.01-.077.013q-2.883.42-6.07.706a.15.15,0,0,0-.029,0c-.321.028-.648.056-.978.08l-.1.009-.992.073c-.032,0-.064,0-.093.005-.34.022-.682.042-1.024.063-.026,0-.051,0-.077.007-.351.019-.7.037-1.056.053-.014,0-.024,0-.038,0q-2.684.129-5.547.131h-.149c-.42,0-.843,0-1.269-.008-.09,0-.18,0-.27,0q-2.3-.03-4.716-.159h-.032v0q-3.659-.193-7.566-.627l3-2.817a41.957,41.957,0,0,0,4.15.954c-.455-2.716-.857-5.106-.918-5.451h-4.7c-.273.586-5.632,12.667-6.267,14.05H85.7c.2-.474,1.467-3.493,1.467-3.493l3.926,0s.383,2.941.47,3.5h3.715c-.084-.456-.442-2.573-.856-5.036,2.645.146,5.3.178,7.771.139a1.31,1.31,0,0,1,.19.675,1.23,1.23,0,0,1-.025.26,1.124,1.124,0,0,1-.474.755,2.418,2.418,0,0,1-1.751.193,5.954,5.954,0,0,1-2.92-1.872c-.482.787-1.492,2.43-1.82,2.967a8.537,8.537,0,0,0,4.567,2.3,6.025,6.025,0,0,0,4.461-1.008,4.852,4.852,0,0,0,1.915-3.269,5.18,5.18,0,0,0,.073-1.119c2.648-.113,4.849-.278,6.264-.4a1.482,1.482,0,0,1,.7,1.2,1.963,1.963,0,0,1-.024.26,1.135,1.135,0,0,1-.477.755,2.411,2.411,0,0,1-1.748.193,5.908,5.908,0,0,1-2.918-1.872c-.485.787-1.494,2.43-1.825,2.967a8.552,8.552,0,0,0,4.565,2.3,6.016,6.016,0,0,0,4.46-1.008,4.828,4.828,0,0,0,1.917-3.269,4.53,4.53,0,0,0-.08-2.058c.6-.088,1.174-.175,1.728-.265-.421,2.949-.817,5.713-.891,6.221h9.073c.088-.618.32-2.247.434-3.034h-5.5l.375-2.6h4.985c.077-.539.254-1.767.369-2.569.682-.216,1.021-.344,1.021-.344s1.687-.507,3.87-1.316c-.313,2.2-1.276,8.924-1.411,9.86h3.932c.115-.833,1.515-10.556,1.515-10.556h2.842c.086-.6.356-2.534.483-3.41a50.049,50.049,0,0,1-8.236,3.41" fill="#003368"/>
    <path id="Path_650" data-name="Path 650" d="M104.938,455.061a5.814,5.814,0,0,0-1.2-.706l-1.016-.512-.02,0-.014-.01c-.331-.188-1.1-.637-1.1-1.391a1.16,1.16,0,0,1,.4-.9,1.629,1.629,0,0,1,1.337-.272,4.935,4.935,0,0,1,2.27,1.255c.4-.767,1.16-2.227,1.428-2.752a6.5,6.5,0,0,0-3.281-1.464,6.078,6.078,0,0,0-4.533.995,4.591,4.591,0,0,0-1.752,3.176,5.36,5.36,0,0,0-.038.658,3.905,3.905,0,0,0,.331,1.645L98,454.8c1.76.134,4.166.243,6.94.265" fill="#003368"/>
    <path id="Path_651" data-name="Path 651" d="M123.232,451.855h5.352c.088-.616.324-2.244.434-3.027H120.1c-.055.363-.4,2.752-.788,5.469,1.234-.154,2.458-.335,3.652-.548Z" fill="#003368"/>
  </g>
</svg>
