<svg xmlns="http://www.w3.org/2000/svg" width="56.868" height="38.501" viewBox="0 0 56.868 38.501">
  <g id="Group_71" data-name="Group 71" transform="translate(-179.873 -306.201)">
    <g id="Group_69" data-name="Group 69">
      <path id="Path_286" data-name="Path 286" d="M180.683,319.59a.112.112,0,0,0-.01.211h0l8.66,5.72,2.479-11.673Z" fill="#de040a"/>
      <path id="Path_287" data-name="Path 287" d="M231.965,313.843h-2.192a.982.982,0,0,0-.388.1L218.4,319.6a.112.112,0,0,0-.01.21h0l8.516,5.605a.859.859,0,0,0,.38.11h2.191c.114,0,.125-.049.034-.11l-8.694-5.719,11.167-5.753C232.09,313.886,232.079,313.843,231.965,313.843Z" fill="#ed6b00"/>
      <path id="Path_288" data-name="Path 288" d="M227.275,313.843H212.017l-2.481,11.678h15.256c.114,0,.129-.049.034-.11l-8.679-5.719,11.15-5.753C227.4,313.886,227.387,313.843,227.275,313.843Z" fill="#de040a"/>
      <path id="Path_289" data-name="Path 289" d="M236.649,313.843h-2.192a.99.99,0,0,0-.388.1l-10.98,5.657c-.1.049-.1.146-.009.21h0l8.517,5.605a.84.84,0,0,0,.378.11h2.191c.114,0,.131-.049.032-.11l-8.689-5.719,11.162-5.753C236.772,313.886,236.764,313.843,236.649,313.843Z" fill="#ffaf00"/>
      <path id="Path_290" data-name="Path 290" d="M226.6,306.2h-35.92a3.657,3.657,0,0,0-3.738,2.822,2.1,2.1,0,0,0,.8,2.139l12.909,8.521.007-.005v.005L226.619,306.3C226.721,306.244,226.711,306.2,226.6,306.2Z" fill="#de040a"/>
      <path id="Path_291" data-name="Path 291" d="M220.9,333.053h0l-20.245-13.37v0l-.007,0-16.533,8.523a3.429,3.429,0,0,0-1.707,2.14c-.336,1.556.528,2.819,2.536,2.819h35.921C220.981,333.165,221,333.114,220.9,333.053Z" fill="#de040a"/>
    </g>
    <g id="Group_70" data-name="Group 70">
      <path id="Path_292" data-name="Path 292" d="M220.943,339.347a1.834,1.834,0,0,0-.787-.637,2.944,2.944,0,0,0-1.2-.221,3.452,3.452,0,0,0-2.352.834,4.043,4.043,0,0,0-1.259,2.253,2.833,2.833,0,0,0,.278,2.274,2.229,2.229,0,0,0,1.989.852,3.608,3.608,0,0,0,1.3-.229,3.453,3.453,0,0,0,1.068-.649,3.842,3.842,0,0,0,.776-.991,4.806,4.806,0,0,0,.472-1.257,3.825,3.825,0,0,0,.068-1.244A2.257,2.257,0,0,0,220.943,339.347Zm-1.24,3.046a2.92,2.92,0,0,1-.447.7,1.977,1.977,0,0,1-.632.492,1.712,1.712,0,0,1-.8.185,1.3,1.3,0,0,1-.732-.185,1.055,1.055,0,0,1-.419-.492,1.832,1.832,0,0,1-.141-.7,2.915,2.915,0,0,1,.082-.817,3.949,3.949,0,0,1,.264-.8,3.354,3.354,0,0,1,.451-.683,1.982,1.982,0,0,1,.639-.487,1.7,1.7,0,0,1,.787-.183,1.292,1.292,0,0,1,.716.183,1.069,1.069,0,0,1,.418.479,1.76,1.76,0,0,1,.158.688,2.98,2.98,0,0,1-.073.8A3.82,3.82,0,0,1,219.7,342.393Z" fill="#de040a"/>
      <path id="Path_293" data-name="Path 293" d="M191.265,339.347a1.791,1.791,0,0,0-.786-.637,2.954,2.954,0,0,0-1.2-.221,3.452,3.452,0,0,0-2.352.834,4.051,4.051,0,0,0-1.256,2.253,2.887,2.887,0,0,0,.274,2.274,2.243,2.243,0,0,0,1.995.852,3.647,3.647,0,0,0,1.3-.229,3.4,3.4,0,0,0,1.064-.649,3.96,3.96,0,0,0,.778-.991,4.837,4.837,0,0,0,.469-1.257,4.023,4.023,0,0,0,.074-1.246A2.277,2.277,0,0,0,191.265,339.347Zm-1.242,3.045a2.616,2.616,0,0,1-.443.7,1.959,1.959,0,0,1-.63.492,1.735,1.735,0,0,1-.808.185,1.31,1.31,0,0,1-.727-.185,1.058,1.058,0,0,1-.42-.492,1.873,1.873,0,0,1-.143-.7,3.419,3.419,0,0,1,.084-.816,3.785,3.785,0,0,1,.268-.8,3.043,3.043,0,0,1,.457-.683,1.852,1.852,0,0,1,.631-.487,1.692,1.692,0,0,1,.792-.183,1.241,1.241,0,0,1,.7.183,1.009,1.009,0,0,1,.424.479,1.693,1.693,0,0,1,.158.688,3.155,3.155,0,0,1-.076.8A3.524,3.524,0,0,1,190.023,342.392Z"/>
      <path id="Path_294" data-name="Path 294" d="M225.94,338.685s-.541-.13-.554-.128a3.563,3.563,0,0,0-.818-.068,3.255,3.255,0,0,0-.832.106,2.653,2.653,0,0,0-.751.319,2.018,2.018,0,0,0-.6.57,2.25,2.25,0,0,0-.364.836,1.439,1.439,0,0,0-.011.692,1.086,1.086,0,0,0,.257.492,1.719,1.719,0,0,0,.414.309,5.9,5.9,0,0,0,.56.269,3.108,3.108,0,0,1,.732.383.5.5,0,0,1,.137.517.809.809,0,0,1-.464.577,2.027,2.027,0,0,1-1.607.057,4.083,4.083,0,0,1-.449-.2c-.026-.019-.048,0-.066.026,0,0-.306.948-.319.977a.055.055,0,0,0,.042.067c.041.011.168.043.312.073a5.327,5.327,0,0,0,1.159.142,3.87,3.87,0,0,0,.915-.1,2.963,2.963,0,0,0,.806-.316,2.16,2.16,0,0,0,.621-.577,2.228,2.228,0,0,0,.368-.823,1.512,1.512,0,0,0,0-.721,1.089,1.089,0,0,0-.267-.5,1.8,1.8,0,0,0-.427-.317c-.149-.082-.347-.167-.579-.266a3.235,3.235,0,0,1-.7-.361.409.409,0,0,1-.143-.457.959.959,0,0,1,.173-.4.874.874,0,0,1,.283-.252,1.246,1.246,0,0,1,.348-.14,1.958,1.958,0,0,1,1.056.059l.434.133a.048.048,0,0,0,.065-.033l.3-.879A.048.048,0,0,0,225.94,338.685Z" fill="#de040a"/>
      <path id="Path_295" data-name="Path 295" d="M214.966,339.531a1.1,1.1,0,0,0-.425-.558,1.958,1.958,0,0,0-.734-.29,4.589,4.589,0,0,0-.948-.088h-1.473a.066.066,0,0,0-.065.046l-1.274,5.9c0,.033.009.055.044.055h1.085a.074.074,0,0,0,.068-.055l.467-2.148a5.07,5.07,0,0,0,1.827-.292v0a2.464,2.464,0,0,0,.451-.225,2.1,2.1,0,0,0,.618-.592,2.515,2.515,0,0,0,.36-.884A1.573,1.573,0,0,0,214.966,339.531Zm-1.268.935a.971.971,0,0,1-.46.687,2.945,2.945,0,0,1-1.313.243l.4-1.86h.425a1.276,1.276,0,0,1,.782.215A.7.7,0,0,1,213.7,340.466Z" fill="#de040a"/>
      <path id="Path_296" data-name="Path 296" d="M231.243,339.536a.077.077,0,0,0,.064-.053l.183-.842a.039.039,0,0,0-.043-.046h-4.529c-.029,0-.065.019-.066.046,0,0-.167.818-.171.842a.04.04,0,0,0,.039.053h1.608a.035.035,0,0,1,.037.047l-1.064,4.958c-.007.033.01.055.035.055h1.1a.069.069,0,0,0,.064-.055l1.067-4.958a.062.062,0,0,1,.064-.047Z" fill="#de040a"/>
      <path id="Path_297" data-name="Path 297" d="M196.809,339.314a.986.986,0,0,0-.511-.484,2.387,2.387,0,0,0-.8-.2c-.3-.027-.679-.038-1.14-.038h-1.244a.081.081,0,0,0-.071.046l-1.274,5.9a.045.045,0,0,0,.041.055H192.9a.065.065,0,0,0,.064-.055l.53-2.445h.39a.764.764,0,0,1,.505.131.966.966,0,0,1,.206.484l.314,1.83a.061.061,0,0,0,.063.055H196.2a.044.044,0,0,0,.046-.055l-.445-2.293a1.278,1.278,0,0,0-.175-.431.426.426,0,0,0-.333-.2,1.929,1.929,0,0,0,1.016-.468,1.782,1.782,0,0,0,.534-.932A1.446,1.446,0,0,0,196.809,339.314Zm-1.247,1a.891.891,0,0,1-.548.688,1.667,1.667,0,0,1-.431.123,3.387,3.387,0,0,1-.481.026h-.4l.351-1.617h.4a4.306,4.306,0,0,1,.487.021,1.226,1.226,0,0,1,.371.1.506.506,0,0,1,.243.24A.649.649,0,0,1,195.562,340.316Z"/>
      <path id="Path_298" data-name="Path 298" d="M202.138,338.641a.04.04,0,0,0-.042-.046h-3.485a.069.069,0,0,0-.067.046l-1.278,5.9a.045.045,0,0,0,.042.055h3.51a.07.07,0,0,0,.061-.055l.18-.835a.045.045,0,0,0-.04-.059h-2.3l.367-1.689h2.084a.06.06,0,0,0,.061-.05l.187-.835a.042.042,0,0,0-.042-.053h-2.088l.318-1.484h2.286a.073.073,0,0,0,.066-.053Z"/>
      <path id="Path_299" data-name="Path 299" d="M186.164,338.6h-1.585a.141.141,0,0,0-.091.035l-2.69,2.55.551-2.539a.044.044,0,0,0-.046-.046h-1.085a.068.068,0,0,0-.067.046l-1.276,5.9a.042.042,0,0,0,.04.055h1.091a.075.075,0,0,0,.067-.055l.6-2.731h0l1.547,2.743a.1.1,0,0,0,.08.043h1.457c.031,0,.041-.017.03-.043l-1.739-2.981,3.13-2.942C186.2,338.609,186.189,338.6,186.164,338.6Z"/>
      <path id="Path_300" data-name="Path 300" d="M206.451,338.649a.063.063,0,0,0-.064-.054H205.21a.091.091,0,0,0-.076.041l-3.468,5.917c-.014.026,0,.043.036.043h1.064a.1.1,0,0,0,.08-.043l.954-1.705a.1.1,0,0,1,.082-.051h1.964a.059.059,0,0,1,.054.053v.006l.212,1.685a.06.06,0,0,0,.064.055h1.15a.042.042,0,0,0,.046-.055Zm-2.042,3.208a.032.032,0,0,1-.033-.048l1.106-1.975a.026.026,0,0,1,.05.006h0l.236,1.964a.045.045,0,0,1-.044.058Z"/>
    </g>
  </g>
</svg>
