<svg xmlns="http://www.w3.org/2000/svg" width="144.525" height="89.794" viewBox="0 0 144.525 89.794">
  <g id="Group_1" data-name="Group 1" transform="translate(-239.285 -255.488)">
    <path id="Path_1" data-name="Path 1" d="M351,323.471l-.109-.022-.2-.271-.1-.017-.467-.56-.307-.293v-.091l-.207-.178-.007-.1-.045-.009-.109-.159-.1-.025-.052-.1-.257-.1v-.044l-.209-.083v-.049l-.2-.084-.06-.1-.3-.15v-.046l-.15-.077-.054-.107-.2-.083-.053-.105-.1-.018-.053-.106-.156-.075-.1-.16-.1-.021-.052-.1-.1-.02-.2-.273-.1-.02-.412-.5-.1-.021v-.049l-.156-.123v-.093l-.417-.408,0-.09-.1-.067-.166-.231,0,0,0-.1.257-.284.109.021.1-.126.1.022.05-.091.157-.016v-.048l.1.021.051-.087.1.019.053-.087.1.018.049-.087.16-.019.149-.163.106.025.053-.089.1.02.308-.278.16-.021,0-.1.307-.23.207-.1.053-.136.154-.066v-.1l.156-.067v-.1l.1-.031v-.094l.1-.026v-.1l.1-.026.053-.135.046.011.053-.183.1-.029.053-.178.153-.021.154-.165.1.025.1-.13.1.024.053-.09.1.017.206-.2.108.022.359-.315.1.017.054-.084.152-.071v-.1l.047.013.208-.2.106.017v-.094l.1-.123.2-.1v-.1l.152-.07V313.4l.158-.07,0-.1.1-.024-.005-.146.11.017,0-.145.464-.294v-.094l.413-.114-.005-.1.307-.088v-.093l.468-.2-.006-.1.108.017.361-.456.1.019v-.093l.106.016-.005-.1.107.019.2-.246v-.146l.156-.066.1-.267.109.019.1-.316.1.018-.005-.19.1.017v-.191l.1.022.049-.232.046.008.056-.326.047.013v-.1l.052.01v-.191l.048.01v-.1l.054.008-.005-.238.1-.03,0-.338.1-.028-.006-.429.108-.028-.008-.813.051.009v-.194l.048.015-.109-.648-.011-.812-.106-.063-.005-.43-.1-.069-.006-.336-.1-.068v-.24l-.051-.01v-.1l-.056-.006V304l-.055-.009v-.145l-.055-.011v-.092l-.049-.011v-.191l-.056-.009-.055-.25-.1-.019v-.029l.01.012.1.017.054.106.1.019.1.156.1.021.055.1.1.02.206.272.1.02.413.5.313.248.156.262.1.02.051.15.258.238v.094l.26.235v.1l.105.065v.1l.153.116v.1l.106.064.006.1.1.065.052.154.05.008,3.158,3.5.1.062v.1l.1.067.058.147.049.011.73.84.1.02.106.159.1.023.16.214.1.018.154.222.1.017.313.386.667.691.209.27.883.916.052.1.207.085.048.105.2.08.059.106,2.01,1.975.1.018.156.267.051.007v.1l.106.066v.046l.107.067v.1l.1.064,0,.1.15.116.834.862.1.02.051.1.106.017.1.162.1.02.1.159.106.021.155.219.1.015.411.5.1.02v.041l.154.13.005.09.466.463.676.643v.048l.1.015v.051l.1.063.2.085.258.194.054.1.159.12.1.017.154.123.049.106.158.124.1.015.1.116.057.106.827.812,1.185,1.2.107.112.1.017.053.105,2.635,2.423v.045l.158.122,1.553,1.7.1.018.208.278.1.017.054.1.31.292.205.228.261.329.21.273.155.219.1.157.157.313.2.274.108.206.053.1.161.315v.1l.005.035.046.008.057.2.045.011v.142l.054.01v.093l.051.009,0,.14.051.012,0,.142.047.008.006.142.047.009.322,1.427,0,.563.054.012-.033,1.215-.047-.009,0,.329-.053-.007v.235l-.056-.01.006.234-.053-.007,0,.187-.051-.01v.188l-.048-.007.005.143-.053-.011-.049.319-.053-.005v.09l-.047-.011v.141l-.053-.008,0,.092-.05-.005v.142l-.049-.01-.1.262-.052-.01v.1l-.055-.009v.093l-.047-.01v.1l-.052-.013-.1.265-.051-.008-.049.13-.1.028-.05.179-.1.025v.094l-.155.067v.1l-.147.068v.092l-.2.106v.1l-.46.284-.4.351-.1-.017-.145.161-.1-.023-.1.122-.1-.015-.108.118-.1-.014-.046.081-.158.02v.05l-.2.009-.052.081-.308.04-.05.082-.454.057v.044l-.2.014v.046l-.153-.027v.046l-.1-.019v.045l-.153-.026v.046l-.156-.026v.045l-.154-.027v.046l-.149-.026v.042l-.209-.035v.048l-.2-.042v.048l-.256-.048v.048s-1.528-.191-2.138-.346-2.166-.733-2.166-.733l-.231-.076-.072-.025v-.049l-.261-.1v-.043l-.2-.087v-.047l-.157-.026v-.051l-.206-.08v-.051l-.207-.086-.055-.1-.3-.153v-.044l-1.5-.935v-.046l-.2-.037v-.048l-.153-.03V338.5l-.156-.027v-.046l-.153-.076-2.368-1.618-.1-.013-.213-.278-.1-.019-1.441-1.112v-.049l-.2-.084v-.048l-.156-.029v-.045l-.308-.152v-.049l-.1-.016v-.048l-.206-.085-.052-.1-.3-.151-.058-.1-.1-.019v-.052l-.153-.071-.054-.1-.1-.018-.107-.159-.1-.019-.053-.1-.1-.023-.208-.269-.1-.019-1.7-1.4v-.051l-.3-.15v-.05l-.1-.019v-.045l-.1-.018v-.045l-.314-.15-.053-.1-.207-.088-.048-.1-.209-.085-.1-.162-.108-.014-.051-.106-.1-.021-.105-.162s-1.756-1.38-2.415-2-2.765-2.506-3-2.764l-.2-.182v-.091l-.26-.235-.055-.152-.1-.161L351,323.471Z" fill="#99d140"/>
    <path id="Path_2" data-name="Path 2" d="M313.9,312.306v.092l.413.274v.1l.425.262v.1l.153.032v.042l.055.106.159.171.1.02v.145l.109.02.1.259.054.006v.1l.105.07v.138l.106.022,0,.1.1.02.108.257.107.018v.1l.1.018.262.431.1.02v.094l.413.316,0,.1.106.02v.092l.265.144v.1l.107.021v.1l.361.21.053.1.154.031.053.1.107.021v.051l.158.074v.1l.208.04v.1l.258.142.738.9,0,.095.1.021.574.632v.093l.107.019v.1l.159.026v.1l.1.017v.095l.683.463.208.18v.052l.1.02,0,.044.109.024.051.1.154.032.052.106.156.029v.047l.21.086v.1l.261.148v.089l.106.021v.1l.1.019.163.172v.1l.1.018.009.1.1.019.265.284v.1l.1.02.835.73v.1l.16.029,0,.1.255.141v.046l.16.031,0,.047.212.086v.1l.214.036v.1l.36.114.056.108.206.037v.091l.261.05.052.108.262.047v.05l.155.027.006.049.2.035v.047l.364.069.05.106.575.109.052.1.521.1v.049l.153.022v.051l.262.051v.049l.105.02.051.1.416.122v.1l1.873.536.677.125v-.046l.1.021v-.05l.984.088v-.1l.93-.063v-.1l.151,0-.045.029v.095l-.254.144-.3.223v.092l-.149.022L333,326.4l-.1-.02-.154.16-.1-.02-.156.164-.1-.025-.1.125-.1-.016-.053.081-.15.023v.045l-.1-.018-.046.085-.154.017v.049l-.308.035-.054.087-.2.006v.048l-.1-.014,0,.045-.105-.019v.045l-.3.04v.046l-.154-.028v.045l-.024.125-.1-.023-.249.237-.235-.028,0,.1-.3.176-.46.392-.106-.021-.4.254-.611.282-.157.022v.045l-.1-.022-.053.085-.205.012-.053.083-.1-.019-.1.076-.1-.019v.048l-.1-.017v.044l-.107-.02,0,.048-.1-.022v.052l-.1-.021v.046l-.107-.016,0,.047-.308.036v.045l-.155-.027v.047l-.1-.02,0,.05-.16-.03.006.043-.148.048v.051l-.155-.026v.044l-.154-.027v.044l-.711.293-.2.2-.107-.021-.2.2-.1-.02-.1.121-.1-.015-.1.119-.1-.017-.053.085-.2.007-.052.087-.155.018v.048l-.207.012-.048.081-.3.038v.045l-.1-.016v.047l-.1-.02v.046l-.1-.017v.046l-.311.04v.043l-.151-.029v.046l-.1-.017v.048l-.154-.032,0,.05-.1-.018v.049l-.155-.031,0,.049-.153-.032v.046l-.968.387-.1-.018-.205.2-.1-.023-.1.128-.1-.022-.1.124-.105-.024-.048.088-.1-.02-.1.124-.2.01-.053.087-.2.005-.05.085-.307.04-.051.082-.152-.027-.049.084-1.684.3-.2-.034v.046l-.2-.036v.045l-.2-.038v.048l-.2-.038v.047l-.259-.05v.048l-.257-.048v.048l-.406-.074v.044l-1.892-.3v-.045l-.616-.113v-.048l-.41-.075,0-.046-.3-.056v-.051l-.206-.04v-.043l-.257-.049v-.047l-.565-.2v-.045l-.153-.026v-.049l-.36-.114V331.4l-.1-.02v-.048l-.154-.026v-.047l-.1-.016v-.049l-.149-.027,0-.048-.2-.089-.01-.044-.147-.027v-.046l-.311-.156v-.046l-.1-.021,0-.045-.2-.084-.054-.1-.312-.15-.049-.105-.209-.084,0-.051-.156-.073-.047-.1-.109-.02-.05-.1-.1-.023-.1-.16-.1-.018-.1-.162-.1-.018-.106-.162-.156-.076-.461-.555-.1-.02-.367-.492-.1-.016-.257-.333,0-.095-.1-.062v-.047l-.105-.07v-.091l-.153-.124,0-.1-.154-.121v-.093l-.1-.065-.055-.154-.051-.01,0-.094-.1-.066-.051-.148-.053-.01-.055-.2-.1-.07-.007-.093-.1-.115v-.088l-.051-.014v-.09l-.052-.013,0-.094-.05-.008-.108-.3-.052-.008-.052-.246-.052-.011v-.1l-.055-.01v-.14l-.052-.007-.052-.2-.053-.008-.106-.493-.052-.009v-.142l-.057-.009v-.14l-.047-.011-.064-.34-.045-.008,0-.189-.051-.013-.056-.576.106-3.977.049.009v-.145l.049.01v-.138l.052.007.147-.585.052.01v-.094l.049.009v-.14l.046.013.052-.181.049.008v-.144l.056.011.049-.185.047.015v-.143l.1-.029v-.092l.1-.074v-.1l.056.007-.011-.092.055.008v-.1l.1-.022.05-.181.1-.027v-.094l.1-.031.046-.179.1-.029v-.094l.151-.066v-.1l.151-.063v-.094l.253-.139v-.1l.2-.1v-.1l.1-.077.152-.016,0-.1.1-.028.1-.119.248-.1v-.093l.1-.077.107.02.152-.161.1.018.2-.2.1.016.1-.121.1.018.1-.121.1.019.05-.085.2-.011.05-.083.155-.022v-.047l.207-.008.046-.083.1.023.1-.081.1.022V313.6l.1.02v-.047l.1.018.047-.083.155.023v-.045l.206-.01,0-.047.156.029v-.045l.2-.012v-.048l.155.029v-.048l.1.02,0-.047.661-.015v-.048l.155.027v-.051l.152.032v-.047l.612.015.051-.082.1.022.1-.126.1.024.1-.126.1.02.1-.124.1.024.054-.085.2-.013.053-.082.1.017.052-.083.1.016.051-.086.1.023.1-.077.108.021,0-.045.105.015v-.046l.1.019.741-.186.085.047Z" fill="#99d140"/>
    <path id="Path_3" data-name="Path 3" d="M330.441,304.186l-.148.159-.108.031.007.093-.1.078-.1-.023-.056.087-.1-.018v.041l-.1-.016v.049l-.154-.033v.048l-.311.04v.047l-.1-.019,0,.044-.313.042-.042.085-.209.006-.045.087-.1-.019-.056.084-.1-.022-.049.09-.1-.021-.053.083-.1-.014-.053.079-.249.079.009,0v.1l.211.138v.1l.416.32,0,.092.105.02v.094l.107.021v.095l.1.023,0,.094.1.015.265.434.105.016.108.261.1.02v.1l.106.018.267.574.1.02.214.422.208.231.316.154v.1l.208.083v.1l.261.144,0,.1.1.016.008.1.1.018,0,.1.26.284.105.02v.1l.1.021v.093l.1.02.369.594.108.02v.1l.1.019v.143l.107.018.112.309.05.01.1.259.105.017.1.257.1.022.322.249v.094l.1.02v.1l.371.208v.1l.1.019.163.27.1.018,0,.1.105.015.164.27.1.019v.1l.1.017.165.362.1.021v.1l.1.019.165.362.1.021,0,.143.1.02.058.15.048.01.052.252.112.064v.1l.105.067v.145l.1.065.056.3.107.064v.194l.054.011.054.249.1.019.063.491.058.008v.1l.049.011,0,.286.108.066.05.442.106.063.112.4.1.02.1.4.1.017.06.347.1.018.063.491.1.02.175,1.7-.05-.013,0,.769-.046-.012.006.339-.056-.014,0,.286-.1.033-.045.373-.105-.02-.25.767-.108-.02-.409.691-.1.026-.054-.01.006.142-.105-.017v.046l-.2.107-.152.118,0,.141-.365.12v.079l.082.014.043-.087.1.021.047-.085.107.02.05-.084.1.018v-.049l.154-.015.052-.086.1.018.157-.163.1.023.2-.2.1.016.353-.306.1.016v-.048l.156-.065.051-.131.351-.218v-.1l.253-.142v-.092l.1-.026v-.048l.108-.027-.006-.091.107-.031v-.1l.1-.029v-.095l.149-.066.152-.228.2-.1.053-.078.1.012.046-.164.1.026.048-.088.108.019.045-.086.1.022.055-.085.149-.017.207-.2.1.015.2-.194.1.017,0-.046.1-.032v-.092l.1.021.2-.2.049.007V321.1l.2-.058v-.094l.254-.143v-.094l.2-.1v-.094l.158.009v-.092l.4-.256.2-.01.053-.164.2,0v-.047l.153-.019.049-.086.1.021v-.051l.155-.016.049-.085.1.017.1-.122.1.023.053-.087.051.008.051-.082.1.016v-.043l.2-.059v-.093l.963-.622,0-.1.153-.064v-.1l.153-.063.174-.173-.133-.212-.054-.011-.054-.2-.155-.121-.058-.253-.052-.006-.211-.329-.682-.459v-.1l-.154-.075-.049-.1-.108-.018-.158-.219-.107-.023-.258-.288-.107-.161-.105-.017-.156-.272-.1-.02-.267-.382-.055-.01V314.8l-.312-.3,0-.1-.1-.066v-.1l-.109-.066v-.1l-.105-.113-.1-.021-.374-.782-.108-.022-.427-.984-.1-.072v-.092l-.053-.015-.052-.3-.053-.011-.006-.14-.049-.008,0-.147-.048-.007v-.144l-.052-.009-.009-.191-.045-.012-.061-.3-.055-.01v-.093l-.048-.012v-.192l-.056-.006,0-.289-.047-.011-.007-.241-.047-.01-.008-.382-.051-.01-.065-1.155-.055-.009v-.143l-.105-.07-.057-.345-.1-.018-.057-.2-.055-.013v-.191l-.05-.01v-.141l-.107-.066,0-.244-.1-.018-.057-.487-.051-.009,0-.1-.054-.01-.006-.335-.1-.07-.006-.527-.106-.063-.02-1.488.1-.022V303.2l.1.017.042-.466.053,0v-.186l.053.011,0-.24.1-.031v-.19l.105-.025.05-.329.105.022.143-.5.107.018-.007-.138.108.018.409-.642.1.017.15-.305.1.022v-.1l.1.018.253-.334.1.017v-.094l.158.028.154-.114,0-.094.105.02v-.094l.105.016.1-.122.11.017.046-.086.154-.017v-.1l.263-.139.458-.059v-.1l.522-.044,0-.1.466-.055.162.031v-.049l.1.018V298.7l.2.037.055-.083.565.056.05-.084.472.084.053-.084.827.154.11-.028,1.4.308v.1l1.143.355,0,.1.26.045.007.1.619.261,0,.094.515.24v.1l.207.087,0,.05.159.022.1.165.158.027v.05l.106.016v.047l.413.082v.048l.36.064v.048l.265.05v.046l.31.06v.045l.21.041.048.1.208.041v.048l.157.027v.046l.162.03v.049l.206.041v.047l.733.326v.094l1.039.575v.093l.179.086-.061-.078v-.092l-.1-.07v-.093l-.105-.114v-.1l-.1-.059-.049-.2-.107-.065v-.095l-.051-.013-.051-.145-.106-.07v-.094l-.2-.179,0-.091-.21-.183v-.093l-.365-.347-.049-.154-.106-.02v-.095l-.1-.017-.723-.7-.1-.162-.107-.02-.052-.1-.1-.018-.107-.16-.207-.086-.048-.1-.156-.079,0-.046-.3-.148v-.048l-.1-.021v-.047l-.31-.148v-.051l-.255-.1v-.043l-.106-.021v-.048l-.153-.027v-.047l-.1-.023v-.044l-.158-.026v-.048l-.1-.018V298.1l-.358-.115v-.046l-.153-.029,0-.047-.2-.037,0-.046-.256-.048v-.049l-.255-.05v-.044l-.82-.2v-.044l-2.253-.323,0,.045-.262-.045,0,.045-.259-.045.006.045-.153-.029v.046l-.2-.036v.046l-.205-.037v.05l-.106-.027v.049l-.307-.005v.047l-.1-.023v.047l-.154-.021v.045l-.2.008v.048l-.155-.031,0,.047-.308.039v.045l-.106-.018,0,.047-.2.01-.048.087-.206.007-.05.084-.1-.019v.05l-.153.015-.046.089-.107-.025-.1.126-.107-.021-.1.122-.1-.017-.151.161-.1-.019-5.477,3.078-.206.007,0,.051-.154.017-.052.083-.1-.018v.048l-.2.1-1.679,1.008.006.09-.1.03-.149.159-.108-.02-.1.077-3.049,1.413Z" fill="#99d140"/>
    <path id="Path_4" data-name="Path 4" d="M266.556,298.745l.1-.219.05.009.051-.177.053.009,0-.1.049.01v-.145l.053.011.1-.262.049.006V297.8l.05.01v-.095l.054.013,0-.1.051.012v-.1l.049.014v-.1l.1-.072v-.1l.1-.025.048-.185.1-.025.051-.179.1-.029,0-.094.054.013v-.1l.1-.028v-.1l.1-.028v-.092l.1-.031,0-.094.105-.026v-.1l.148-.065v-.092l.152-.069v-.092l.253-.144v-.092l.1-.031v-.043l.1-.03,0-.1,1.259-1.554.05.007.133-.161.053.006v-.142l.054.011,0-.094.051.009,0-.136.054.007.1-.265.052.007v-.091l.05.008v-.093l.05.011v-.094l.048.008v-.1l.052.01v-.093l.049.009,0-.095.053.011v-.1l.1-.076v-.09l.1-.031.051-.181.1-.025.05-.181.1-.028v-.092l.051.007v-.092l.148-.068.049-.18.152-.065v-.093l.152-.064.253-.286v-.1l.1.022.1-.171.049.007v-.091l.055.01.15-.162.1-.026v-.1l.05.012.149-.162.1.021,1.334-1.45,0-.1.054.014.05-.183.049.014,0-.1.053.009v-.1l.056.013,0-.1.051.014v-.1l.048.012v-.1l.052.009v-.1l.049.009v-.089l.053,0-.007-.092.107-.078,0-.092.105-.024.046-.184.154-.064.048-.177.1-.03v-.095l.053.007-.006-.09.106-.032.048-.131.152-.063v-.1l.153-.065.05-.181.251-.142v-.093l.254-.141v-.093l.758-.851.048.013v-.1l.047.01.051-.319.05.009,0-.1.059.009.045-.273.053.011,0-.1.054.012v-.142l.05.009.045-.181.052.008v-.14l.054.014.1-.268.055.01-.007-.1.054.011v-.1l.047.009v-.092l.052.01v-.093l.048.007V283.2l.055.01v-.094l.053.009-.007-.094.1-.076,0-.1.105-.028.1-.265.1-.024v-.094l.149-.069.049-.179.105-.027,0-.1.153-.066v-.094l.051.01.048-.135.1-.025,0-.1.2-.1v-.093l.25-.142,0-.092.309-.182v-.093l.6-.926.054.012,0-.1.051.011.1-.4.051.006v-.093l.051.009v-.143l.051.012.051-.178.051.01v-.144l.049.007.1-.26.055.005V278.7l.047.013v-.1l.055.01,0-.094.051.008v-.1l.053.014-.006-.1.057.013,0-.094.053.007v-.1l.1-.074v-.1l.1-.028.046-.178.1-.03.051-.177.1-.027v-.1l.1-.028v-.09l.1-.032v-.093l.1-.028v-.1l.1-.026-.035-.148.156-.064v-.1l.2-.1.051-.134.451-.621v-.238l.049.011,0-.142.055.011,0-.141.049,0v-.188l.049.008,0-.137.135.023V275l.051.009,0-.137.058.005,0-.1.052.012.047-.274.054.01-.007-.093.053.008,0-.142.05.015.053-.183.054.01-.007-.1.056.013,0-.143.053.01.1-.262.051.006,0-.094.053.01-.007-.092.056.008.1-.264.1-.031v-.139l.1-.031.048-.176.1-.027v-.1l.1-.025v-.1l.1-.03v-.093l.1-.027v-.094l.1-.029-.006-.094.053.008.053-.131.1-.027V272l.146-.065v-.1l.253-.141v-.09l.755-1.086,0-.141.054.009,0-.142.047.011v-.195l.053.014-.008-.1.055.012v-.142l.051.01v-.094l.051.009v-.142l.049.013v-.1l.051.013,0-.145.049.007.051-.176.047.01v-.1l.057.007,0-.137.094-.03v-.145l.055.013v-.093l.049.009-.006-.1.109-.027-.006-.094.1-.075V268.4l.055.008v-.1l.047.012v-.1l.1-.027.047-.182.1-.025V267.9l.1-.031v-.092l.1-.029,0-.095.1-.026v-.1l.1-.028v-.1l.148-.064v-.091l.154-.069v-.092l.653-.914.049.007v-.139l.051.006v-.14l.051.008,0-.141.049.013,0-.19.055.007v-.1l.047.012.1-.406.054.01,0-.094.051.013V264.9l.052.01.048-.18.047.01.053-.227.052.011.095-.264.057.007v-.092l.05.01,0-.093.055,0,0-.092.053.011-.008-.1.1-.074v-.094l.107-.027.045-.18.1-.028.046-.179.1-.031.052-.176.152-.068,0-.094.106-.026v-.1l.1-.025.049-.129.151-.071v-.094l.1-.029v-.044l.1-.03v-.093l.2-.1v-.1l1.357-1.818v-.092l.051.01v-.095l.1-.03,0-.092.1-.078v-.094l.056.01v-.093l.1-.029.049-.181.054.009.045-.13.107-.029.045-.179.153-.065v-.1l.1-.026v-.1l.153-.062v-.093l.2-.105,0-.1.2-.1v-.09l.459-.294,0-.1.1-.025.1-.125.1.025.407-.354.1.022.151-.16.1.017.2-.2.1.022.1-.126.1.018.05-.085.155-.02v-.046l.1.021.052-.084.1.02.05-.087.155-.021v-.047l.3-.038.046-.081.105.017.1-.077.1.023v-.05l.1.017v-.046l.1.022.051-.087.151.027v-.043l.207-.011v-.045l.149.03v-.047l.209-.011,0-.046.157.027v-.049l.1.021v-.049l.157.03v-.049l.1.021v-.049l.87-.168.1.024.05-.089.2-.008.049-.087.207-.013v-.043l.1.018v-.047l.3-.035v-.045l.158.023,0-.046.2-.007v-.048l.152.031v-.052l.1.021V255.6l.307.013,0-.049.148.03v-.048l.155.031v-.05l.153.027V255.5l.2.041,0-.048.2.04,0-.047.258.047v-.047l4.043.936v.05l.156.029v.047l.149.026.007.048.151.025v.05l.153.028v.047l.1.018v.047l.159.028v.05l.2.084v.046l.156.03v.047l.309.152v.044l.207.087.049.1.207.085.052.105.105.019.051.1.1.021.052.1.1.018.054.106.1.018.055.1.1.02.156.215.1.022.2.273.1.017,0,.046.1.065v.1l.836.952.147.124.006.094.155.121v.1l.1.062.051.155.053.01v.094l.1.068.057.149.051.011v.092l.1.116v.092l.055.01v.094l.054.01v.094l.056.006v.1l.048.01v.095l.051.011.106.3.055.013,0,.141.046.009v.093l.06.01v.14l.047.008v.1l.056.006v.143l.05.012v.14l.051.011.059.34.048.007.532,1.6.049.015.053.194.054.011.054.294.054.007v.1l.05.006.162.644.05.007v.143l.052.01.006.14.051.007,0,.191.047.01.108.725v3.908l-.1.638-.047-.011v.147l-.053-.012v.14l-.429,2.465-.048-.015.006.57L314.37,275l.009.422-.05-.006v.276l-.05-.006,0,.281-.057-.008.008.234-.054-.008.006.188-.052-.007-.542,1.735-.054-.011-.045.179-.052-.009,0,.14-.055-.01-.051.181-.049-.01,0,.1-.058-.015,0,.139-.1.032v.1l-.1.074-.547,1.212-.05.126-.045-.126-.153-.12-.056-.2-.154-.125,0-.091-.107-.072v-.1l-.154-.122-.106-.16-.05-.014v-.092l-.205-.182-.267-.384-.107-.015-.05-.155-.055-.011v-.142l-.054,0v-.151l-.055-.006v-.142l-.046-.009v-.143l-.059-.012v-.142l-.051-.008,0-.142-.049-.009-.107-.309-.05-.008v-.092l-.054-.012v-.095l-.055-.012v-.093l-.048-.01v-.1l-.053,0-.006-.1-.1-.115v-.1l-.1-.067-.11-.3-.158-.122v-.1l-.207-.177-.055-.155-.1-.067v-.094l-.159-.125v-.1l-.157-.123,0-.095-.363-.357-.052-.15-.1-.017,0-.1-.209-.135-.254-.331-.11-.02v-.048l-.254-.19v-.1l-.161-.075v-.047l-.153-.076-.055-.1-.314-.153-.051-.108-.154-.073,0-.047-.1-.019-.108-.117-.1-.015v-.05l-.1-.02-.059-.1-.1-.017v-.049l-.1-.018-.1-.12-.1-.016-.052-.106-.463-.23,0-.048-.1-.016v-.049l-.314-.1-1.189-.556-.57-.153v-.045l-1.656-.354-3.092.043-.159-.032v.052l-.308.039v.045l-.2.013-.052.086-.1-.022v.045l-.1-.018,0,.049-.1-.019-.105.078-.1-.022-.049.086-.309.04-.1.121-.208.01-.045.088-.158.016v.05l-.154.016,0,.1-.266.095,0,.043-.1-.015-.258.235-.209.058,0,.091-.154.024,0,.092-.107.028,0,.052-.105-.021-.254.234,0,.1-.048-.008-.1.171-.1-.021-.048.131-.05,0-.048.131-.108.033-.047.178-.152.068-.1.26-.106.032,0,.094-.1.077,0,.1-.052-.008v.1l-.053-.01v.092l-.051-.01v.1l-.049-.005v.091l-.053-.012-.1.27-.054-.008-.5,1.471-.09.936-.059-.008-.037,1.084.053.008.064.964.052.011.058.582.047.005.007.19.055.011,0,.19.048.011,0,.189.049.01.008.142.05.01v.145l.054.008v.148l.049.005,0,.143.054.011v.141l.053.011,0,.141.048.013,0,.141.053.01.111.3.045.011.008.093.047.009,0,.1.053.012v.093l.052.009v.1l.052.01v.1l.105.113,0,.1.1.067.1.3.153.126.056.2.106.068.056.151.048.007.054.154.106.018v.1l.157.125v.093l.1.066v.1l.157.122v.048l.1.022.1.111.058.153.207.182v.14l.05.014v.144l.054.009,0,.141.054.013v.142l.052.005,0,.1.051.009.052.3.05.01.112.3.048.01v.094l.057.012v.093l.05.012v.093l.054.011v.092l.1.117v.1l.1.064.108.308.16.124.057.2.1.064.053.154.217.18v.1l.256.235v.1l.369.352.05.153.1.019.163.363.108.449.055.011,0,.094.05.011v.143l.055.006.1.3.051.015,0,.1.053.011v.1l.051.006.006.1.047.008v.143l.105.07.057.2.105.063.1.3.109.065v.1l.1.067.058.2.1.064v.1l.211.179v.1l.213.182v.1l.153.121.058.106.1.018v.049l.1.066v.1l.156.075.057.153.1.015.053.108.052.005v.1l.1.068.057.293.055.015v.09l.051.012v.142l.052.009.11.307.048,0,0,.1.053.009v.093l.053.01v.1l.054.011,0,.093.048.011v.1l.1.115,0,.1.1.068.1.3.16.123.051.153.055.009v.1l.155.124v.1l.209.183,0,.093.207.181,0,.1.361.352.052.151.1.02v.1l.159.075v.05l.265.236v.1l.1.067v.1l.053.009v.1l.053.008,0,.143.053.01.151.386h-.02l-.05.274-.049-.01v.091l-.052-.006.006.141-.056-.011,0,.142-.05,0v.092l-.052-.014,0,.142-.055-.006-.043.179-.055-.013,0,.143-.049-.011-.1.267-.056-.01,0,.093-.049-.007v.14l-.1.03v.093l-.053-.011v.143l-.1.029,0,.093-.051-.009.006.094-.1.077v.091l-.1.029-.1.265-.1.029v.094l-.15.066-.049.177-.152.068v.093l-.1.028-.054.134-.05-.011,0,.1-.156.065v.1l-.248.233-.577.785-.077.13-.052-.009v.14l-.048-.012v.192l-.049-.009v.141l-.053-.007-.077.125-.05-.011v.146l-.051-.012v.136l-.052,0v.093l-.05-.01v.144l-.047-.012v.095l-.054-.011-.127.259-.051-.008-.054.179-.046-.01v.1l-.05-.012v.143l-.055-.01-.1.037.034.008,0,.092-.052-.012-.1.266-.095.026-.1.266-.1.033-.1.259-.1.027v.1l-.1.027v.093l-.1.033.006.092-.053,0-.05.13-.1.027v.094l-.148.065,0,.1-.1.025v.1l-.1.023.08.065-.1.029v.091l-.2.334.006.087-.358.219v.1l-.2.1-1.058,1.358-.049-.007-.052.18-.047-.009v.092l-.051-.01v.145l-.052-.012-.1.261-.054,0v.088l-.047,0,0,.092-.056-.007,0,.1-.05-.009v.093l-.1.072v.1l-.1.029,0,.14-.054-.01-.048.134-.106.024-.049.183-.1.03v.09l-.05-.01,0,.1-.105.028v.093l-.148.066-.049.179-.154.066v.091l-.153.067v.1l-.1.025v.1l-.2.1,0,.092-.258.146v.095l-.768.936-.055-.007,0,.188-.05-.011v.1l-.048-.013-.185.395-.05-.014-.049.23-.05-.01v.091l-.05-.009,0,.14-.055,0-.1.259-.054-.009,0,.1-.052-.009v.1l-.051-.015v.139l-.1.032v.141l-.1.028v.091l-.052-.006v.1l-.05-.015,0,.1-.057-.012,0,.1-.1.075v.095l-.1.026-.05.18-.1.027-.048.181-.153.067-.047.179-.154.063-.05.136-.1.027-.048.18-.154.064v.093l-.25.142v.1l-.254.14v.094l-.855.974-.049.125-.049-.005v.19l-.053-.012-.045.178-.051-.008-.051.274-.049-.012-.055.228-.045-.011-.055.179-.049-.012v.1l-.053-.011v.144l-.049-.013-.1.267-.051-.01v.095l-.049-.007-.1.261-.1.027v.1l-.1.073v.1l-.05-.013v.1l-.049-.01v.1l-.1.03-.05.176-.1.03v.091l-.1.031v.093l-.1.028,0,.093-.1.03v.093l-.1.027v.094l-.15.064,0,.1-.1.029v.095l-.205.1v.094l-.254.139v.1l-.2.1v.049l-.1.029-.875,1.107-.051.082-.1.27-.049-.011-.047.18-.053-.011v.142l-.055-.008,0,.09-.051-.006v.139l-.051-.007-.178.25-.053-.011v.1l-.047-.012v.143l-.1.028v.093l-.1.077,0,.092-.047-.008v.094l-.051-.007v.092l-.1.075v.094l-.1.03-.054.178-.1.03v.092l-.1.029v.091l-.1.029-.05.182-.154.063-.047.179-.151.068-.253.284v.094l-.1-.024-.1.172-.053-.007v.093l-.1.027.006.046-.105.033v.093l-.558.37,0,.09-.105.025-.251.237-.1-.015-.055.081L280.8,328.81l-.055-.008,0,.1-.048,0,0,.088-.1.078v.095l-.1.026-.051.18-.1.029-.049.178-.153.063-.043.182-.154.067-.048.179-.156.062,0,.1-.15.068.006.09-.209.105-.047.137-.055-.016v.1l-.1-.024-1.011.946-.1-.017-.049.082-.405.206v.1l-.055-.012-.2.1,0,.051-.1-.019v.092l-.207.06v.043l-.1-.02-.052.084-.051-.005-.051.082-1.012.99-.1.027-.049.179-.1.028,0,.1-.106.028,0,.094-.1.029v.093l-.1.028v.092l-.1.033v.091l-.148.067v.093l-.1.031v.089l-.1.03v.049l-.1.029v.091l-.2.1v.095l-.354.214v.1l-.359.216-.048.13-.1-.016-.049.132-.153.023-.451.286-1.315,1.308-.2.246v.1l-.1.021-.046.182-.107.03.006.092-.106.03-.1.122v.092l-.1.029-.085.008-.1.023v.094l-.1.03,0,.092-.153.066-.249.284v.1l-.105-.021-.048.133-.151.063v.1l-.256.14-.961.712v.1l-.1.075-.1-.017-.105.121-.512.234.006.093-.152.023-.307.127-.1.125-.107-.021-.154.068-.047.084-.021.072-.045.085-.359.079v.09l-.205.009v.048l-.1-.02-.047.083-.107-.017v.048l-.1-.024-.1.032-3.1,2.014-.1-.017-.154.159-.1-.019v.046l-.153.067-.055.085-.1-.016-.049.082-.1-.02-.1.122-.1-.02-.1.127-.207.007-.095.122-.1-.018-.049.083-.207.007-.048.086-.2.013-.054.083-.106-.02-.1.078-.107-.024v.051l-.1-.019-.051.085-.207.009,0,.049-.1-.022v.045l-.307.041,0,.048-.158-.027v.041l-.1-.013v.046l-.308.035v.049l-.308-.009v.046l-.1-.021v.05l-.462.008v.045l-.1-.019v.045l-.2-.034v.046l-.155-.028v.046l-.152-.03v.05l-.154-.026v.047l-.2-.041-.867.078-.511-.047v.047l-3.067-.429v-.05l-1.082-.245-2.049-.757,0-.045-.666-.263v-.049l-.1-.018v-.049l-.152-.025V343.3l-.309-.1v-.05l-.106-.017v-.046l-.153-.032v-.044l-.205-.087v-.046l-.1-.019v-.048l-.152-.024v-.05l-.207-.089V342.6l-.1-.015,0-.045-.151-.03-.056-.106-.1-.016v-.049l-.1-.018v-.048l-.1-.02v-.05l-.105-.016-.1-.112-.1-.021-.054-.1-.309-.151-.052-.106-.206-.079-.1-.167-.1-.015-.059-.105-.1-.02-.007-.044-.147-.077-.054-.1-.1-.021-.1-.161-.1-.017-.049-.1-.105-.021-.1-.162-.107-.016-.207-.275-.1-.022-.266-.329-.1-.016-.672-.785-.414-.407v-.1l-.362-.349v-.093l-.208-.178v-.094l-.205-.184,0-.087-.1-.072v-.091l-.156-.122v-.1l-.1-.066-.053-.151-.05-.009,0-.1-.1-.067V336.8l-.1-.068v-.092l-.1-.063-.109-.307-.105-.062-.105-.3-.1-.068-.052-.195-.055-.011v-.094l-.055-.011v-.093l-.048-.01,0-.1-.05-.009-.006-.1-.049-.011v-.139l-.1-.063,0-.143-.052-.012-.052-.194-.049-.012,0-.139-.053-.01-.051-.2-.052-.011-.058-.289-.049-.01v-.1l-.052-.01,0-.186-.049-.013V333.6l-.051-.01V333.4l-.054-.01v-.14l-.051-.012,0-.14-.053-.007-.056-.34-.05-.009-.053-.436-.051-.01v-.185l-.053-.011v-.19l-.058-.008,0-.283-.051-.009-.055-.67-.053-.012-.125-1.811h0l.051.01.086-1.726.047.008v-.283l.049.012,0-.285.053.012.046-.415.048.009,0-.238.051.01,0-.187.058.008.041-.323.051.012V325.6l.054.008v-.143l.046.01v-.189l.053.008,0-.091.053.008.1-.41.051.012.051-.178.051.011.048-.275.052.013.1-.266.05.011v-.094l.046.009.049-.228.1-.03.046-.224.105-.028,0-.093.1-.075,0-.1.056.012v-.1l.049.013,0-.1.1-.021.1-.271.052.01.045-.13.1-.027v-.094l.1-.027v-.1l.154-.067.046-.178.153-.062v-.1l.151-.065,0-.1.252-.137v-.093l.257-.145v-.091l.2-.106v-.1l.307-.128v-.1l.354-.219.05-.084.1.02.1-.075-.006-.1.51-.235v-.1l.4-.158.053-.082.1.016.1-.123.1.021.1-.125.1.019.048-.085.151-.021v-.045l.1.017.047-.085.107.025.047-.087.1.019,1.32-.888.752-.8.057.007.355-.356.049.009v-.1l.2-.15.157-.017.355-.311,1.469-1.046v-.094l.1-.122.1-.071v-.1l.049,0v-.087l.1-.03v-.091l.1-.076,0-.1.1-.026v-.1l.1-.026v-.093l.1-.125.107-.029.25-.28.3-.322v-.094l.1.019.266-.14.05.009v-.1l.2-.1v-.048l.1-.028v-.1l.3-.174.6-.642.1.016.3-.274.1.023.1-.273.1.017.2-.2.1.019.051-.084.1.022.105-.124.434-.3.088-.069.06-.043.409-.432.047-.182.051.011.049-.13.1-.032v-.092l.1-.027v-.1l.206-.105.048-.179.1-.029.057-.13.252-.142v-.092l.252-.138v-.1l.5-.329.049-.132,1.936-1.992.1-.034.1-.257.1-.03.1-.266.053.007.05-.134.1-.024.05-.181.153-.062.05-.178.154-.067,0-.1.154-.066-.006-.092.107-.027v-.095l.254-.138,0-.1.255-.14v-.09l2.19-3.11.07-.1.1-.025.052-.184.1-.023.047-.18.1-.03,0-.089.1-.03,0-.1.106-.023,0-.1.1-.026v-.095l.146-.066v-.092l.154-.068v-.1l.257-.14,0-.094.255-.141v-.093l.2-.107,0-.092.105-.08.1.025" fill="#41b190"/>
    <path id="Path_5" data-name="Path 5" d="M304.045,297.665l.144-.543.105.019.153-.639.1-.029.053-.134.049.01.054-.131.1.016.2-.342.105.023.2-.392.106.018.2-.44.108.024.2-.348v-.141l.1-.027,0-.143.1-.028.05-.226.051.007,0-.095.1-.029.053-.277.1.018.053-.319.1-.036.045-.366.106-.032.045-.368.1-.03,0-.237.054.011v-.192l.1-.029.044-.563.1-.029-.007-.378.053.007v-.142l.054.01.049-.229.052.01.1-.03.047-.228.153-.018,0-.141.1.017.053-.23.155-.016-.006-.145.108.022.1-.319.105.022.043-.277.107.019.354-.789.1.017.048-.273.108.016.043-.321.105.018.043-.417.105.017.15-.636.05.008.047-.464.1-.028.046-.658.1-.028v-.191l.048.007.154-.3.1.016.151-.115.251-.522.1.019.2-.439.1.021,1.4-3.97.056.007.035-.107h0l.046.006v.1l.057.008.007.093.046.008v.1l.057.009v.1l.051.011v.095l.054.005v.1l.05.008v.1l.053.01.1.3.047.009.942,1.63,0,.1.208.177v.1l.151.12v.092l.156.127v.1l.107.067v.093l.105.065.052.153.053.005v.094l.1.114v.094l.054.009v.1l.1.064.051.2.053.008.108.3.051.014,0,.139.052.008.049.2.056.009.879,1.246v.094l.264.236v.1l.207.181v.09l.152.123v.093l.1.071,0,.094.154.123v.094l.1.067.059.2.1.067.112.3.1.065.056.2.051.01.05.2.056.011v.142l.055.011.051.2.049.007.057.248.053.008.881,1.245v.1l.256.236.006.092.152.124v.094l.155.121v.1l.1.064.058.151.05.013v.094l.1.062.053.2.1.063.107.3.052.01v.094l.055.012v.091l.053.009v.1l.055.01.1.3.051.008v.142l.051.009v.1l.047.008.008.143.054.007,0,.1.047.01v.142l.052.009,0,.14.055.013v.139l.05.009.308.479.262.38.051.01.054.15.156.124v.093l.1.067v.094l.151.124v.092l.1.07.059.149.051.01.058.2.1.07v.09l.1.112v.1l.055.005v.1l.046.009,0,.09.1.07,0,.142.055.01v.091l.045.014.056.2.054.006v.143l.052.011v.09l.055.01.052.246.057.009v.143l.048.009.625,1.1.2.178.007.095.153.125v.093l.105.063v.1l.361.585.105.068v.095l.1.113.006.092.048.011,0,.094.05.011v.092l.05.007v.1l.055.012.105.3.053.012.882,1.246.1.162.055.008v.1l.206.178v.094l.155.122v.1l.159.125v.092l.1.068v.094l.1.064.056.149.046.013.06.2.1.067.055.2.26.52h.074l-.013.045-.155.068v.049l-.1-.02v.05l-.1-.024-.1.13-.06-.014v.1l-.047-.007-.054.085-.107-.02-.046.136-.155.115-.053-.012v.051l-.1-.021v.045l-.156.068v.1l-.1.032v.093l-.208.1-.255.19v.095l-.058-.005v.1l-.146.065v.049l-.107-.023-.048.089-.21.006-.512.145-.153.115v.047l-.109-.02,0,.049-.11-.02-.1.122-.107-.018-.047.084-.106-.015-.309.273-.1-.018-.156.164-.153.018-.051.133-.154.022v.095l-.154.118-.055-.014.007.051-.163.017-.045.083-.16-.029-.048.086-.1-.018v.049l-.11-.018.007.048-.209-.043v.048l-.314.041v.047l-.153-.026.006.046-.106-.02-.049.086-.212.013-.538.349-.722.345-1.162.571-.155.117-.615.556-.149.113-.467.057-.105.123-.468.06-.048.085-.206.009-.1.13-.107-.023-.053.085-.206.011-.1.124-.2.105-.105-.021v.1l-.108-.026-.093.132-.109-.026,0,.051-.108-.019v.046l-.1.031,0,.093-.1.032,0,.046-.211.008-.051.082-1.057.087-.608-.751-.156-.121-.051-.15-.209-.185v-.089l-.156-.122v-.1l-.154-.122v-.1l-.1-.064v-.093l-.1-.068-.052-.2-.1-.064-.057-.2-.055-.008-.048-.2-.051-.009,0-.095-.053-.012-.084-.11-.046-.009-.471-.649-.38-.447v-.051l-.208-.176v-.094l-.516-.517v-.1l-.128-.163v-.1l-.107-.067v-.093l-.105-.069v-.094l-.1-.062V306.6l-.1-.067v-.093l-.105-.069v-.093l-.052-.008-.053-.2-.1-.068-.054-.2-.052-.005-.19-.323-.05-.009v-.144l-.05,0-.052-.2-.053,0-.99-1.361v-.1l-.258-.232,0-.1-.153-.121v-.1l-.152-.12,0-.095-.1-.065v-.1l-.107-.065-.051-.152-.051-.01-.107-.3-.1-.062-1.042-1.839-.053-.155-.415-.4v-.1l-.206-.179v-.093l-.209-.179,0-.1-.1-.065-.054-.152-.05-.006v-.1l-.106-.067v-.091l-.1-.066,0-.1-.1-.067-.006-.095-.256-.375V297.9l.023.007v-.239Z" fill="#a6c01d"/>
    <path id="Path_6" data-name="Path 6" d="M312.5,280.343v.059l-.05-.06Z" fill="#74b624"/>
    <path id="Path_7" data-name="Path 7" d="M312.506,280.414l-.009.073V280.4l.009.012Z" fill="#74b624"/>
    <rect id="Rectangle_1" data-name="Rectangle 1" width="0.002" height="0.014" transform="translate(312.443 280.327) rotate(-11.524)" fill="#74b624"/>
    <path id="Path_8" data-name="Path 8" d="M304.022,297.9l-.031-.008,0-.019.033.007v.02Z" fill="#74b624"/>
    <path id="Path_9" data-name="Path 9" d="M303.785,297.473l0-.143-.053-.008v-.1l-.053-.009v-.1l-.1-.067v-.1l-.265-.236v-.05l-.159-.075v-.1l-.1-.02-.052-.151-.361-.352,0-.1-.207-.181,0-.093-.209-.183v-.1l-.155-.124v-.1L302,295.1l-.051-.153-.16-.123-.1-.3-.1-.068,0-.1-.1-.115v-.1l-.048-.011,0-.093-.054-.011v-.1l-.053-.01v-.093l-.053-.009,0-.1-.048,0-.11-.307-.052-.009v-.142L301,293.25v-.09l-.055-.015-.578-.818v-.1l-.1-.066v-.049l-.1-.018-.058-.106-.153-.121v-.1l-.213-.182v-.1l-.211-.179v-.1l-.1-.064-.058-.2-.1-.067v-.1l-.109-.065-.1-.3-.105-.062-.057-.2-.105-.07v-.143l-.047-.008-.006-.1-.051-.006v-.1l-.053-.011,0-.1-.051-.015-.1-.3-.055-.006v-.143l-.05-.011,0-.094-.055-.011-.794-1.336v-.1l-.256-.235v-.1l-.217-.18-.053-.154-.1-.064-.057-.2-.16-.124-.108-.308-.1-.064v-.1l-.1-.117v-.092l-.054-.011v-.093l-.05-.012v-.093l-.057-.012v-.094l-.048-.01-.112-.3-.05-.01-.052-.3-.051-.009-.057-.1-.054-.154-.314-.63-.161-.264-.1-.022v-.048l-.157-.122v-.1l-.1-.066v-.093l-.157-.125v-.1l-.106-.018-.054-.154-.048-.007-.056-.151-.106-.068-.056-.2-.153-.126-.1-.3-.1-.067,0-.1-.105-.113v-.1l-.052-.01v-.1l-.052-.009v-.093l-.053-.012,0-.1-.047-.009-.008-.093-.045-.011-.111-.3-.053-.01,0-.141-.048-.013,0-.141-.053-.011v-.141l-.054-.011,0-.143-.049-.005v-.148l-.054-.008v-.145l-.05-.01-.008-.142-.049-.01,0-.189-.048-.011,0-.19-.055-.011-.007-.19-.047-.005-.058-.582-.052-.011-.064-.964-.053-.008.037-1.084.059.008.09-.936.5-1.471.054.008.1-.27.053.012v-.091l.049.005v-.1l.051.01v-.092l.053.01v-.1l.052.008,0-.1.1-.077,0-.094.106-.032.1-.26.152-.068.047-.178.108-.033.048-.131.05,0,.048-.131.1.021.1-.171.048.008,0-.1.254-.234.105.021,0-.052.107-.028,0-.092.154-.024,0-.091.209-.058.258-.235.1.015,0-.043.266-.095,0-.1.154-.016v-.05l.158-.016.045-.088.208-.01.1-.121.309-.04.049-.086.1.022.105-.078.1.019,0-.049.1.018v-.045l.1.022.052-.086.2-.013v-.045l.308-.039v-.052l.159.032,3.092-.043,1.656.354v.045l.57.153,1.189.556.314.1v.049l.1.016,0,.048.463.23.052.106.1.016.1.12.1.018v.049l.1.017.059.1.1.02v.05l.1.015.108.117.1.019,0,.047.154.073.051.108.314.153.055.1.153.076v.047l.161.075v.1l.254.19v.048l.11.02.254.331.209.135,0,.1.1.017.052.15.363.357,0,.095.157.123v.1l.159.125v.094l.1.067.055.155.207.177v.1l.158.122.11.3.1.067v.1l.1.115.006.1.053,0v.1l.048.01v.093l.055.012v.095l.054.012v.092l.05.008.156.318.951,1.648v.092l.05.014.106.16.154.122v.1l.107.072,0,.091.154.125.056.2.153.12.045.126v.013l0,0,.05.06v.085l-.035.107-.056-.007-1.4,3.97-.1-.021-.2.439-.1-.019-.251.522-.6,1.269-.1.028-.047.464-.05-.008-.15.636-.105-.017-.043.417-.105-.018-.043.321-.108-.016-.048.273-.1-.017-.354.789-.107-.019-.043.277-.105-.022-.1.319-.1.123-.208.247-.1.124-.5,1-.146.592-.1.029v.192l-.054-.011,0,.237-.1.03-.045.368-.106.032-.045.366-.1.036-.053.319-.1-.018-.053.277-.1.029,0,.095-.051-.007-.05.226-.1.028,0,.143-.1.027v.141l-.2.348-.108-.024-.2.44-.106-.018-.2.392-.815,1.227-.249.523v.239l-.023-.007v-.02l-.033-.007-.151-.386-.053-.01Z" fill="#257f77"/>
    <path id="Path_10" data-name="Path 10" d="M345.419,318.2l.04.044-.1-.017-.025-.059.079-.016,0,.047Z" fill="#74b624"/>
    <path id="Path_11" data-name="Path 11" d="M355.292,303.113l.052.013v.112l-.191-.242.14.117Z" fill="#74b624"/>
    <path id="Path_12" data-name="Path 12" d="M345.15,317.948l-.054-.2-.155-.121-.058-.253-.052-.006-.211-.329-.682-.459v-.1l-.154-.075-.049-.1-.108-.018-.158-.219-.107-.023-.258-.288-.107-.161-.105-.017-.156-.272-.1-.02-.267-.382-.055-.01V314.8l-.312-.3,0-.1-.1-.066v-.1l-.109-.066v-.1l-.206-.1-.374-.821-.108-.022-.427-.984-.1-.072v-.092l-.053-.015-.052-.3-.053-.011-.006-.14-.049-.008,0-.147-.048-.007v-.144l-.052-.009-.009-.191-.045-.012-.061-.3-.055-.01v-.093l-.048-.012v-.192l-.056-.006,0-.289-.047-.011-.007-.241-.047-.01-.008-.382-.051-.01-.76-2.622-.057-.487-.051-.009,0-.1-.054-.01-.006-.335-.1-.07-.006-.527-.106-.063-.02-1.488.1-.022V303.2l.1.017.042-.466.053,0v-.186l.053.011,0-.24.1-.031v-.19l.105-.025.05-.329.105.022.143-.5.107.018-.007-.138.108.018.409-.642.1.017.15-.305.1.022v-.1l.1.018.253-.334.1.017v-.094l.158.028.154-.114,0-.094.105.02v-.094l.105.016.1-.122.11.017.046-.086.154-.017v-.1l.263-.139.458-.059v-.1l.522-.044,0-.1.466-.055.162.031v-.049l.1.018V298.7l.2.037.055-.083.565.056.05-.084.472.084.053-.084.827.154.11-.028,1.4.308v.1l1.143.355,0,.1.26.045.007.1.845.261,2.027,1.1.353.192v.045l.21.041.048.1.208.041v.048l.157.027v.046l.162.03v.049l.206.041v.047l.733.326v.094l1.039.575v.093l.179.086.191.242v.029l.1.019.055.251.056.009v.191l.05.011v.092l.055.011V304l.055.009v.195l.057.006v.1l.051.009v.241l.1.067.006.337.105.069,0,.43.106.063.011.813.108.647-.048-.015v.194l-.051-.009.008.813-.107.028.006.429-.1.028,0,.338-.1.03,0,.238-.054-.008v.1l-.048-.009v.19l-.053-.01v.1l-.047-.013-.056.326-.046-.008-.049.232-.1-.022v.191l-.1-.017,0,.19-.1-.018-.1.316-.109-.018-.1.267-.156.066v.146l-.2.247-.107-.02,0,.1-.106-.016v.093l-.1-.019-.361.456-.107-.017.006.1-.468.2v.093l-.308.088,0,.1-.875.647-.109-.018,0,.146-.1.025,0,.1-.158.07v.092l-.152.071v.1l-.2.1-.1.124v.094l-.106-.018-.208.2-.047-.012v.095l-.152.071-.054.084-.1-.017-1.652,1.222-.046-.011-.053.135-.1.026v.1l-.1.026v.095l-.1.03v.1l-.156.067v.1l-.154.067-.053.136-.207.1-.308.23,0,.1-.16.021-.309.277-.1-.02-.053.089-.106-.025-.148.163-.16.019-.049.087-.1-.018-.053.087-.1-.02-.051.087-.1-.02v.047l-.157.017-.05.09-.1-.022-.1.126-.109-.021-.257.284,0,.1,0,0-.04-.044,0-.047-.079.016-.133-.212-.054-.011Z" fill="#55ab3c"/>
    <path id="Path_13" data-name="Path 13" d="M313.818,312.259l-.018-.019.028,0,.014.023Z" fill="#74b624"/>
    <path id="Path_14" data-name="Path 14" d="M327.7,305.353h0Z" fill="#74b624"/>
    <path id="Path_15" data-name="Path 15" d="M314.936,312.066l.211-.008,0-.046.1-.032,0-.093.1-.031v-.046l.108.019,0-.051.109.026.093-.132.108.026v-.1l.105.021.2-.105.1-.124.206-.011.053-.085.107.023.1-.13.206-.009.048-.085.468-.06.105-.123.467-.057.149-.113.615-.556.155-.117.93-.537.153.03v-.1l.724-.343.615-.318.212-.013.049-.086.106.02-.006-.046.153.026v-.047l.314-.041v-.048l.209.043-.007-.048.11.018v-.049l.1.018.048-.086.16.029.045-.083.163-.017-.007-.051.055.014.154-.118v-.095l.154-.022.051-.133.153-.018.156-.164.1.018.309-.273.106.015.047-.084.107.018.1-.122.11.02,0-.049.109.02v-.047l.153-.115.512-.145.824-.562.208-.1V306.3l.1-.032v-.1l.156-.068v-.045l.1.021v-.051l.053.012.155-.115.046-.136.107.02.054-.085.047.007v-.1l.06.014.1-.13.1.024v-.05l.1.02v-.049l.155-.068.013-.045h.032l.009,0v.1l.211.138v.1l.416.32,0,.092.105.02v.094l.107.021v.095l.1.023,0,.094.1.015.265.434.105.016.108.261.1.02v.1l.106.018.368.594.738.807v.1l.208.083v.1l.261.144,0,.1.1.016.008.1.1.018,0,.1.26.284.105.02v.1l.1.021v.093l.1.02.369.594.108.02v.1l.1.019v.143l.107.018,1.368,1.543v.1l.1.019.163.27.1.018,0,.1.105.015.164.27.1.019v.1l.1.017.165.362.1.021v.1l.1.019.165.362.1.021,0,.143.1.02.058.15.048.01.052.252.112.064v.1l.105.067v.145l.1.065.056.3.107.064v.194l.054.011.054.249.1.019.063.491.058.008v.1l.049.011,0,.286.108.066.269.908.1.02.1.4.1.017.06.347.1.018.063.491.1.02.175,1.7-.05-.013,0,.769-.046-.012.006.339-.056-.014,0,.286-.1.033-.045.373-.105-.02-.25.767-.108-.02-.409.691-.1.026-.054-.01.006.142-.105-.017v.046l-.2.107-.152.118,0,.141-.365.12v.079l-.025-.006-.01.02h-.016l-.09.052-.035,0-.1.071-.1-.016v.044l-.1-.018v.048l-.1-.019-.049.088-.309.034-.05.088-.1-.019-.047.08-.261.152-.151,0v.1l-.93.063v.1l-.984-.088v.05l-.1-.021v.046l-.677-.125-1.873-.536v-.1l-.416-.122-.051-.1-.105-.02v-.049l-.262-.051v-.051l-.153-.022V324.5l-.521-.1-.052-.1-.575-.109-.05-.106-.364-.069v-.047l-.2-.035-.006-.049-.155-.027v-.05l-.262-.047-.052-.108-.261-.05v-.091l-.206-.037-.056-.108-.36-.114v-.1l-.214-.036v-.1l-.212-.086,0-.047-.16-.031v-.046l-.255-.141,0-.1-.16-.029v-.1l-.835-.73-.1-.02v-.1l-.265-.284-.1-.019-.009-.1-.1-.018v-.1l-1-.806-.206-.138-.051-.1-.109-.024,0-.044-.1-.02V319.9l-.208-.18-.683-.463v-.095l-.1-.017v-.1l-.159-.026v-.1l-.107-.019v-.093l-.574-.632-.1-.021,0-.095-1-1.042v-.1l-.208-.04v-.1l-.158-.074v-.051l-.107-.021-.053-.1-.154-.031-.053-.1-.361-.21v-.1l-.107-.021v-.1l-.265-.144v-.092l-.106-.02,0-.1-.413-.316v-.094l-.1-.02-.262-.431-.1-.018v-.1l-.107-.018-.108-.257-.1-.02,0-.1-.106-.022V314.1l-.105-.07v-.1l-.054-.006-.1-.259-.109-.02V313.5l-.1-.02-.159-.171-.055-.106v-.042l-.153-.032v-.1l-.425-.262v-.1l-.413-.274v-.092l-.085-.047h.024l-.014-.023,1.057-.087.051-.082Z" fill="#52931a"/>
    <path id="Path_16" data-name="Path 16" d="M309.03,304.985" fill="#55ab3c"/>
  </g>
</svg>
