<svg xmlns="http://www.w3.org/2000/svg" width="31.405" height="48.379" viewBox="0 0 31.405 48.379">
  <g id="Group_4" data-name="Group 4" transform="translate(-323.253 -357.884)">
    <path id="Path_1" data-name="Path 1" d="M332.765,404.607a7.079,7.079,0,0,1-3.633,1.206,5.968,5.968,0,0,1-5.879-5.635l6.08-3.622,9.463,4.232Z" fill="#6bacd2"/>
    <path id="Path_2" data-name="Path 2" d="M336.379,389.031l-4.524-2c-2.012-.9-3.924-1.655-3.924-3.875a3.072,3.072,0,0,1,.9-2.355l9.563,4.213-2.365,1.367c-.66.4-1.112.755-1.112,1.261,0,.544.621,1,1.462,1.387" fill="#aace8e"/>
    <path id="Path_3" data-name="Path 3" d="M340.818,368.166l-4.632,2.81c-.416.252-.966.648-.966,1.264,0,.707,1.076,1.242,2.025,1.692l-5.8-2.555c-1.708-.754-3.415-1.607-3.415-3.665a3.772,3.772,0,0,1,.654-2.169l12.537-7.659a5.668,5.668,0,0,1,2.96,4.88c0,2.474-1.248,4.129-3.361,5.4" fill="#6bacd2"/>
    <path id="Path_4" data-name="Path 4" d="M350.682,377.222l-1.155.653-9.574-4.227,11.128-6.7a5.733,5.733,0,0,1,2.979,4.883,5.873,5.873,0,0,1-3.378,5.395" fill="#aace8e"/>
    <path id="Path_5" data-name="Path 5" d="M342.591,385.356l5.668,2.489c2.125.944,2.774,2.066,2.774,3.469a2.965,2.965,0,0,1-1.1,2.163l-9.525-4.233,1.608-.9c1.368-.751,1.815-1.208,1.815-1.709,0-.522-.318-.862-1.239-1.278" fill="#6bacd2"/>
    <path id="Path_6" data-name="Path 6" d="M352.7,406.263a39.987,39.987,0,0,0-8.117-4.533l-14.438-6.389c-3.63-1.613-6.039-3.77-6.039-7.4,0-3.523,1.7-5.234,3.926-6.633l.8-.5a3.071,3.071,0,0,0-.9,2.355c0,2.22,1.91,2.975,3.924,3.875l16.8,7.411c2.923,1.248,5.6,3.409,5.6,7.083a7.558,7.558,0,0,1-1.563,4.736" fill="#299527"/>
    <path id="Path_7" data-name="Path 7" d="M350.983,392.822l-1.051.655a2.961,2.961,0,0,0,1.1-2.16c0-1.41-.654-2.526-2.773-3.472l-17.967-7.912c-3.63-1.605-5.889-3.676-5.889-7.286,0-3.328,1.659-5.5,4.278-7.106a3.765,3.765,0,0,0-.654,2.167c0,2.062,1.71,2.911,3.415,3.666l17.465,7.71c3.177,1.4,5.75,3.525,5.75,7.4a6.976,6.976,0,0,1-3.675,6.342" fill="#006cad"/>
  </g>
</svg>
