<svg xmlns="http://www.w3.org/2000/svg" width="76.54" height="53.743" viewBox="0 0 76.54 53.743">
  <path id="Path_89" data-name="Path 89" d="M129.241,262.306c0-15.073,17.127-27.285,38.27-27.285s38.27,12.212,38.27,27.285-17.134,26.458-38.27,26.458S129.241,277.366,129.241,262.306Zm25.739,15.285c7.275,4.028,18.684,2.61,18.684,2.61,3.481,0,.98-2.064.98-2.064a3.51,3.51,0,0,1-.762-5.54,11.9,11.9,0,0,1,6.622-3.691c7.277-2.286,15.646-1.2,15.646-1.2,2.6.437.43-1.841.43-1.841-1.627-1.307-.648-4.135-.648-4.135a13.963,13.963,0,0,1,9.09-4.875l-.249-.8-.205-.571a26.475,26.475,0,0,0-6.468-1.024c-12.6-1.306-18.9,2.277-18.9,2.277-10.1,5.106,0,9.94,0,9.94a46.106,46.106,0,0,0-16.947.16,18.687,18.687,0,0,0-7.924,2.989C148.354,274.008,154.98,277.591,154.98,277.591Zm-25.727-14.356.209.345c4.834,7.608,21.988,5.326,21.988,5.326,2.4-.323.544-1.519.544-1.519-4.779-4.343,1.309-7.606,1.309-7.606,8.412-4.944,19.71-3.2,19.71-3.2,2.611.051,1.084-1.094,1.084-1.094a3.964,3.964,0,0,1-1.026-4.18c1.732-4.124,8.9-5.483,8.9-5.483,2.013-.81,0-1.577,0-1.577-17.385-3.582-25.957,1.414-25.957,1.414-10.375,5.375.593,9.941.593,9.941a59.469,59.469,0,0,0-12.493-.765c-13.464,1.083-14.815,6.243-14.815,6.243s-.059.652-.059,1.226M160.192,273.6a2.344,2.344,0,1,0-2.344-2.342A2.339,2.339,0,0,0,160.192,273.6Zm-22.864-10.95a2.344,2.344,0,1,0-2.348-2.342A2.346,2.346,0,0,0,137.328,262.648ZM159.8,250.935a2.343,2.343,0,1,0-2.341-2.34A2.343,2.343,0,0,0,159.8,250.935Zm22.923,11.077a2.343,2.343,0,1,0-2.344-2.339A2.334,2.334,0,0,0,182.728,262.012Z" transform="translate(-129.241 -235.021)" fill="#005aa1"/>
</svg>
