<svg xmlns="http://www.w3.org/2000/svg" width="30.84" height="29.817" viewBox="0 0 30.84 29.817">
  <g id="Group_106" data-name="Group 106" transform="translate(-455.469 -442.612)">
    <g id="Group_105" data-name="Group 105">
      <g id="Group_104" data-name="Group 104">
        <path id="Path_561" data-name="Path 561" d="M484.722,460.621l-1.936-1.266a3.89,3.89,0,0,1-4.37.078s-5.9-3.851-6.44-4.212a1.908,1.908,0,0,0-2.149-.011l-6.464,4.223a3.89,3.89,0,0,1-4.37-.078l-1.933,1.266a3.507,3.507,0,1,0,3.837,5.872l9-5.883a1.67,1.67,0,0,1,1.987,0l9,5.885a3.508,3.508,0,0,0,3.84-5.872Z" fill="#76a32e"/>
      </g>
    </g>
    <path id="Path_562" data-name="Path 562" d="M470.234,449.725a1.313,1.313,0,0,1,1.354-.006c.369.221,4.288,2.818,4.288,2.818a3.357,3.357,0,0,0,4.076-.315l2.225,1.458a2.981,2.981,0,1,1-3.263,4.991s-6.392-4.168-7.013-4.524a1.935,1.935,0,0,0-1.993.007c-.518.307-7.043,4.517-7.043,4.517a3.055,3.055,0,0,1-4.128-.864,2.982,2.982,0,0,1,.864-4.127l2.227-1.458a3.356,3.356,0,0,0,4.075.315S469.848,449.96,470.234,449.725Z" fill="#4c782c"/>
    <path id="Path_563" data-name="Path 563" d="M471.662,448.667l4.714,3.105a2.443,2.443,0,0,0,2.673-4.09l-7.421-4.854a1.353,1.353,0,0,0-1.462,0l-7.434,4.858a2.442,2.442,0,1,0,2.67,4.09l4.783-3.107a1.208,1.208,0,0,1,1.477,0Z" fill="#00380d"/>
    <path id="Path_564" data-name="Path 564" d="M475.953,470.42l-3.857-6.308a1.308,1.308,0,0,0-2.412,0l-3.858,6.308c-.5.775-.381,2.009,1,2.009h8.131C476.334,472.429,476.453,471.2,475.953,470.42Z" fill="#00380d"/>
  </g>
</svg>
