<svg xmlns="http://www.w3.org/2000/svg" width="47.196" height="41.489" viewBox="0 0 47.196 41.489">
  <path id="Path_4" data-name="Path 4" d="M216.064,376.338c-2.086,5.185-5.582,6.652-5.582,6.652,10.287-10.425,4-22.436,4-22.436-1.518-2.693.414-3.865.414-3.865-4.418,1.1-3.037,4.762-3.037,4.762a18.3,18.3,0,0,1,1.019,12.24l-1.456-.815.022-.034s3.45-13.592-10.619-18.36l-.012-2.557h-2.968v16.844l13.807,7.87q-.378.766-.8,1.446l-13.868-8.033-13.926,8.033c-.277-.454-.545-.935-.8-1.446l13.807-7.87V351.925h-2.968l-.012,2.557c-14.069,4.768-10.62,18.36-10.62,18.36l.023.034-1.455.815a18.3,18.3,0,0,1,1.018-12.24s1.381-3.659-3.038-4.762c0,0,1.934,1.172.415,3.865,0,0-6.282,12.011,4,22.436,0,0-3.5-1.467-5.582-6.652a4.054,4.054,0,0,0-4.5-1.978,4.543,4.543,0,0,1,1.985,2.859s2.986,9.5,14.514,10.948v5.247h5.661v-7.732a15.712,15.712,0,0,1-10.59-5.093l1.422-.83a17.241,17.241,0,0,0,10.572,4.39v0H197v0a17.229,17.229,0,0,0,10.57-4.39l1.423.83a15.712,15.712,0,0,1-10.59,5.093v7.732h5.661v-5.247c11.529-1.449,14.514-10.948,14.514-10.948a4.539,4.539,0,0,1,1.985-2.859A4.055,4.055,0,0,0,216.064,376.338Zm-7.377-5.015-.01.013-7.79-4.362-.043-9.32h.043S210.275,360.208,208.687,371.323ZM193.04,357.654h.042l-.042,9.32-7.79,4.362-.011-.013C183.651,360.208,193.04,357.654,193.04,357.654Zm3.946,15.919,7.767,4.542v.013l-.069-.039a11.666,11.666,0,0,1-15.441,0l-.069.039v-.013l7.812-4.542Z" transform="translate(-173.365 -351.925)" fill="#004598"/>
</svg>
