<svg xmlns="http://www.w3.org/2000/svg" xmlns:xlink="http://www.w3.org/1999/xlink" width="237.626" height="237.627" viewBox="0 0 237.626 237.627">
  <defs>
    <radialGradient id="radial-gradient" cx="0.499" cy="0.498" fx="0.5852930545806885" fy="0.38931185007095337" r="0.5" gradientTransform="translate(0)" gradientUnits="objectBoundingBox">
      <stop offset="0.034" stop-color="#00abef"/>
      <stop offset="0.972" stop-color="#004396"/>
    </radialGradient>
    <radialGradient id="radial-gradient-2" cx="0.498" cy="0.498" fx="0.5647616386413574" fy="0.38464075326919556" r="0.422" gradientTransform="translate(8.289) scale(1.531 1)" gradientUnits="objectBoundingBox">
      <stop offset="0.045" stop-color="#fff"/>
      <stop offset="1" stop-color="#cb9023"/>
    </radialGradient>
    <radialGradient id="radial-gradient-3" cx="0.494" cy="0.498" fx="0.35515037178993225" fy="0.49763718247413635" r="0.475" gradientTransform="translate(2.761) scale(1.099 1)" xlink:href="#radial-gradient-2"/>
  </defs>
  <g id="Group_71" data-name="Group 71" transform="translate(-1305.39 -350.65)">
    <path id="Path_565" data-name="Path 565" d="M1543.016,469.461A118.813,118.813,0,1,1,1424.2,350.65,118.819,118.819,0,0,1,1543.016,469.461Z" fill="url(#radial-gradient)"/>
    <path id="Path_566" data-name="Path 566" d="M1414.114,564.248s7.271,5.332-.968,6.785c0,0-80.936,7.752-85.3-80.451,0,0,0-3.875,2.908-4.363,0,0,2.424-.967,4.362,2.91,0,0,4.847,13.572,12.6,24.232,0,0,3.39,3.391,6.3-.97,0,0,6.3-10.174,10.662-12.114,0,0,6.787-5.873,6.787,3.391,0,1.455-.487,15.508,1.937,26.656,0,0,15.508-4.846,29.563-4.361,0,0,14.539.97-12.6,21.808C1390.367,547.771,1380.189,553.582,1414.114,564.248Z" fill="#cb9023"/>
    <path id="Path_567" data-name="Path 567" d="M1415.568,373.3s3.492.7,3.394-3.877c0,0,.328-3.439-4.361-4.359,0,0-53.8-8.242-62.52,44.1,0,0-7.151,31.173,35.863,65.911,0,0,28.594,27.623,44.1,39.256,0,0,30.286,23.734,27.625,41.68,0,0-2.417,10.613-24.718,15.992,0,0-1.937,0-1.452,2.908,0,0,.969,3.393,5.814,3.393,0,0,40.151,1.646,50.4-31.5,0,0,11.959-22.7-31.988-58.641,0,0-29.079-25.687-51.372-45.072,0,0-37.317-31.5-22.294-54.28C1384.066,388.808,1390.368,374.268,1415.568,373.3Z" fill="url(#radial-gradient-2)"/>
    <path id="Path_568" data-name="Path 568" d="M1438.747,375.6s-4.35-3.662-8.013-.914c0,0-3.431,2.516-.226,7.326,0,0,1.6,1.828,5.033,6.635,0,0,5.723,11.445-1.6,20.373,0,0-13.275,20.6-6.18,41.2,0,0,7.095,16.937,26.322,8.7,0,0,12.816-7.1,2.289-24.492,0,0-9.156-16.481-.228-19.227a7.868,7.868,0,0,1,9.383,2.513s2.292,2.977,4.351,10.3c0,0,3.206,11.9,13.277,13.505,0,0,10.757,2.287,17.624-6.41,0,0,10.531-10.527-.458-21.746,0,0-3.2-3.2-16.48-6.639,0,0-9.386-2.742-5.723-8.7,0,0,2.748-3.891,9.156-.457,0,0,8.472,4.806,12.133.916,0,0,5.494-6.869-5.494-13.049,0,0-9.155-5.721-31.819-5.264C1462.093,380.175,1447.446,381.552,1438.747,375.6Z" fill="url(#radial-gradient-3)"/>
  </g>
</svg>
