<svg xmlns="http://www.w3.org/2000/svg" width="53.874" height="42.214" viewBox="0 0 53.874 42.214">
  <g id="Group_140" data-name="Group 140" transform="translate(-271.987 -41.285)">
    <path id="Path_769" data-name="Path 769" d="M279.913,72.268c-1.5-.7-2.729-1.27-2.729-2.416,0-.876.7-1.513,2.084-1.513a6.93,6.93,0,0,1,1.356.137,4.37,4.37,0,0,0,.664.071c1.207,0,1.889-.719,2.342-2.088l.189-.562a12.686,12.686,0,0,0-4.743-.944c-4.092,0-6.256,2.628-6.253,5.358a4.622,4.622,0,0,0,1.1,3.158,9.942,9.942,0,0,0,3.264,2.238c1.685.829,3.209,1.441,3.209,2.67,0,1.089-1.125,1.711-2.632,1.711a8.176,8.176,0,0,1-4.087-1.323l-1.694,3.177a11.667,11.667,0,0,0,6.069,1.557c3.819,0,6.711-2.2,6.711-5.576,0-3.356-2.682-4.6-4.854-5.655" fill="#d80029"/>
    <path id="Path_770" data-name="Path 770" d="M294.86,73.833l6.932-8.51h-4.938l-5.529,7.346h-.083V65.323h-4.071V83.352h.242c1.76,0,3.856-.815,3.856-3.757V75.454h.086l5.635,7.676h5.178Z" fill="#d80029"/>
    <path id="Path_771" data-name="Path 771" d="M302.025,46.008c-1.436.27-3.561,1.572-3.553,3.88,0,2.09,1.715,3.358,1.72,6.1a4.858,4.858,0,0,1-2.356,4.223c.5-.046,1.041-.075,1.638-.075a13.265,13.265,0,0,1,2.057.125l6.43-7.905a26.873,26.873,0,0,0-5.936-6.348" fill="#d80029"/>
    <path id="Path_772" data-name="Path 772" d="M307.426,67.346c.808-1.258.913-3.27.981-5.32.075-1.908.473-3.348,3.025-3.358.565,0,1.106.078,2.082.075a15.053,15.053,0,0,0,7.7-2.153,26.72,26.72,0,0,0-13.251-4.234c-.365,1.039-3.213,8.965-3.429,9.6a10.47,10.47,0,0,1,1.155,1.69,18.882,18.882,0,0,1,1.739,3.695" fill="#d80029"/>
    <path id="Path_773" data-name="Path 773" d="M293.841,60.871c-.322,0-.484-.215-.527-.588s-1.651-15.1-1.891-17.337c-.034-.327-.115-.924-.115-1.139a.474.474,0,0,1,.487-.522,22.476,22.476,0,0,1,9.32,4.064,4.712,4.712,0,0,0-3.559,4.422c.011,2.42,1.742,3.755,1.752,6.19.012,3.952-4.523,4.908-5.467,4.91" fill="#f15f16"/>
    <path id="Path_774" data-name="Path 774" d="M307.794,68.394a2.609,2.609,0,0,0,.2.45.437.437,0,0,0,.4.253.948.948,0,0,0,.365-.1c.34-.156,13.768-6.414,15.792-7.35.3-.14.851-.389,1.038-.5a.5.5,0,0,0,.274-.43.538.538,0,0,0-.076-.264,16.543,16.543,0,0,0-3.728-3.3,16.593,16.593,0,0,1-8.424,2.436c-.983,0-1.2-.068-1.873-.061-1.956.006-2.442.842-2.517,2.559-.011.324-.013.76-.036,1.24-.061,1.537-.241,3.651-1.413,5.063" fill="#f15f16"/>
  </g>
</svg>
