<svg xmlns="http://www.w3.org/2000/svg" xmlns:xlink="http://www.w3.org/1999/xlink" width="33.92" height="33.923" viewBox="0 0 33.92 33.923">
  <defs>
    <clipPath id="clip-path">
      <path id="Path_532" data-name="Path 532" d="M269.431,464.255a16.164,16.164,0,1,0-16.167-16.164A16.166,16.166,0,0,0,269.431,464.255Z" fill="none"/>
    </clipPath>
  </defs>
  <g id="Group_91" data-name="Group 91" transform="translate(-252.468 -431.188)">
    <path id="Path_467" data-name="Path 467" d="M286.388,448.145a16.96,16.96,0,1,1-16.956-16.957A16.967,16.967,0,0,1,286.388,448.145Z" fill="#fff"/>
    <g id="Group_86" data-name="Group 86">
      <path id="Path_468" data-name="Path 468" d="M269.431,464.255a16.164,16.164,0,1,0-16.167-16.164A16.166,16.166,0,0,0,269.431,464.255Z" fill="#0072c0"/>
    </g>
    <g id="Group_90" data-name="Group 90">
      <g id="Group_89" data-name="Group 89" clip-path="url(#clip-path)">
        <g id="Group_88" data-name="Group 88">
          <g id="Group_87" data-name="Group 87">
            <path id="Path_469" data-name="Path 469" d="M269.285,455.891c7.105,0,13.194,1.978,15.8,4.793a16.312,16.312,0,0,0,1.356-6.544,17.16,17.16,0,0,0-34.312,0,16.353,16.353,0,0,0,1.357,6.541C256.09,457.869,262.185,455.891,269.285,455.891Z" fill="#0072c0"/>
            <path id="Path_470" data-name="Path 470" d="M269.283,437.5a16.912,16.912,0,0,0-17.109,16.662c0,.215,0,.432.012.644a16.04,16.04,0,0,0,1.341,5.861c2.6-2.791,8.674-4.753,15.756-4.753s13.161,1.962,15.762,4.753a16.014,16.014,0,0,0,1.339-5.864c.01-.215.013-.428.013-.644A16.911,16.911,0,0,0,269.283,437.5Z" fill="#0074c2"/>
            <path id="Path_471" data-name="Path 471" d="M269.282,437.639a16.845,16.845,0,0,0-17.066,16.535c0,.213,0,.427.012.638a15.832,15.832,0,0,0,1.338,5.83c2.587-2.768,8.652-4.715,15.716-4.715s13.125,1.947,15.721,4.715a15.918,15.918,0,0,0,1.339-5.834c0-.212.01-.425.008-.638A16.843,16.843,0,0,0,269.282,437.639Z" fill="#0076c3"/>
            <path id="Path_472" data-name="Path 472" d="M269.279,437.783c-9.372,0-16.987,7.372-17.02,16.4,0,.213,0,.425.009.636a15.7,15.7,0,0,0,1.333,5.8c2.584-2.746,8.633-4.678,15.678-4.678s13.093,1.932,15.68,4.678a15.659,15.659,0,0,0,1.336-5.8c.006-.212.009-.425.009-.637C286.269,445.151,278.655,437.782,269.279,437.783Z" fill="#0078c5"/>
            <path id="Path_473" data-name="Path 473" d="M269.278,437.927c-9.342,0-16.933,7.325-16.978,16.276,0,.212,0,.422.01.632a15.38,15.38,0,0,0,1.332,5.765c2.573-2.723,8.607-4.637,15.636-4.637s13.057,1.914,15.638,4.637a15.372,15.372,0,0,0,1.33-5.768c.008-.21.014-.423.012-.632C286.211,445.249,278.622,437.927,269.278,437.927Z" fill="#007ac6"/>
            <path id="Path_474" data-name="Path 474" d="M269.276,438.07c-9.31,0-16.879,7.277-16.933,16.149,0,.209,0,.42.009.628a15.222,15.222,0,0,0,1.328,5.733c2.567-2.7,8.586-4.6,15.6-4.6s13.025,1.9,15.6,4.6a15.186,15.186,0,0,0,1.329-5.737c.007-.209.008-.421.007-.631C286.154,445.344,278.588,438.068,269.276,438.07Z" fill="#007bc8"/>
            <path id="Path_475" data-name="Path 475" d="M269.273,438.212c-9.278,0-16.822,7.231-16.887,16.021,0,.208,0,.416.007.624a14.989,14.989,0,0,0,1.326,5.7c2.561-2.679,8.563-4.56,15.554-4.56s12.991,1.881,15.56,4.56a15.054,15.054,0,0,0,1.324-5.707c.007-.208.009-.417.007-.625C286.1,445.44,278.556,438.212,269.273,438.212Z" fill="#007dc9"/>
            <path id="Path_476" data-name="Path 476" d="M269.273,438.355c-9.248,0-16.768,7.186-16.846,15.893,0,.206,0,.414.008.62a14.807,14.807,0,0,0,1.321,5.671c2.556-2.656,8.542-4.522,15.517-4.522s12.956,1.866,15.515,4.522a14.706,14.706,0,0,0,1.323-5.676c.006-.205.009-.415.006-.621C286.038,445.535,278.522,438.355,269.273,438.355Z" fill="#007fca"/>
            <path id="Path_477" data-name="Path 477" d="M269.27,438.5c-9.218,0-16.711,7.139-16.8,15.765,0,.2,0,.411.006.615a14.583,14.583,0,0,0,1.319,5.639c2.549-2.634,8.52-4.485,15.475-4.485s12.923,1.851,15.478,4.485a14.546,14.546,0,0,0,1.316-5.644c.008-.2.008-.41.006-.619C285.979,445.632,278.488,438.5,269.27,438.5Z" fill="#0081cc"/>
            <path id="Path_478" data-name="Path 478" d="M269.266,438.642c-9.184,0-16.655,7.091-16.753,15.635,0,.2,0,.409.005.612a14.374,14.374,0,0,0,1.315,5.608c2.542-2.61,8.5-4.444,15.433-4.444s12.892,1.834,15.436,4.444a14.308,14.308,0,0,0,1.317-5.612c.006-.2.007-.409.006-.615C285.92,445.728,278.454,438.642,269.266,438.642Z" fill="#0083cd"/>
            <path id="Path_479" data-name="Path 479" d="M269.265,438.785c-9.152,0-16.6,7.044-16.711,15.507,0,.2,0,.406.005.608a14.144,14.144,0,0,0,1.313,5.576c2.535-2.587,8.476-4.406,15.393-4.406s12.856,1.819,15.4,4.406a14.144,14.144,0,0,0,1.313-5.577c.005-.2.006-.411,0-.613C285.862,445.823,278.42,438.785,269.265,438.785Z" fill="#0085cf"/>
            <path id="Path_480" data-name="Path 480" d="M269.264,438.929c-9.122,0-16.545,7-16.667,15.379,0,.2,0,.4,0,.6a13.978,13.978,0,0,0,1.309,5.544c2.53-2.565,8.457-4.366,15.355-4.366s12.823,1.8,15.353,4.366a13.887,13.887,0,0,0,1.31-5.547c.005-.2.007-.408,0-.609C285.8,445.918,278.388,438.929,269.264,438.929Z" fill="#0087d0"/>
            <path id="Path_481" data-name="Path 481" d="M269.262,439.071c-9.091,0-16.49,6.951-16.622,15.251q-.006.3,0,.6a13.73,13.73,0,0,0,1.308,5.515c2.522-2.546,8.431-4.331,15.312-4.331s12.79,1.785,15.314,4.331a13.762,13.762,0,0,0,1.307-5.516q.008-.3,0-.609C285.747,446.015,278.354,439.071,269.262,439.071Z" fill="#0089d2"/>
            <path id="Path_482" data-name="Path 482" d="M269.259,439.218c-9.059,0-16.433,6.9-16.577,15.12,0,.2,0,.395,0,.6a13.592,13.592,0,0,0,1.3,5.482c2.516-2.522,8.409-4.291,15.272-4.291s12.755,1.769,15.273,4.291a13.581,13.581,0,0,0,1.3-5.484c.005-.2.005-.4,0-.605C285.688,446.111,278.32,439.218,269.259,439.218Z" fill="#008bd3"/>
            <path id="Path_483" data-name="Path 483" d="M269.258,439.36c-9.029,0-16.379,6.852-16.534,14.992,0,.2,0,.4,0,.591a13.336,13.336,0,0,0,1.3,5.452c2.506-2.5,8.385-4.253,15.231-4.253s12.723,1.753,15.232,4.253a13.308,13.308,0,0,0,1.3-5.452c.007-.2.007-.4,0-.6C285.631,446.206,278.288,439.36,269.258,439.36Z" fill="#008dd5"/>
            <path id="Path_484" data-name="Path 484" d="M269.254,439.5c-9,0-16.323,6.806-16.489,14.865,0,.195,0,.393,0,.586a13.215,13.215,0,0,0,1.3,5.418c2.5-2.476,8.365-4.212,15.192-4.212s12.691,1.736,15.193,4.212a13.164,13.164,0,0,0,1.3-5.419q0-.3,0-.6C285.572,446.3,278.255,439.5,269.254,439.5Z" fill="#0090d6"/>
            <path id="Path_485" data-name="Path 485" d="M269.252,439.645c-8.966,0-16.267,6.761-16.443,14.738-.005.193-.005.389,0,.583a12.974,12.974,0,0,0,1.292,5.387c2.5-2.454,8.343-4.173,15.151-4.173s12.656,1.719,15.152,4.173a12.978,12.978,0,0,0,1.3-5.388c0-.2,0-.4,0-.594C285.513,446.4,278.221,439.645,269.252,439.645Z" fill="#0092d8"/>
            <path id="Path_486" data-name="Path 486" d="M269.249,439.788c-8.931,0-16.211,6.715-16.4,14.61,0,.193,0,.386,0,.58a12.866,12.866,0,0,0,1.292,5.353c2.491-2.429,8.321-4.133,15.11-4.133s12.623,1.7,15.113,4.133a12.779,12.779,0,0,0,1.291-5.355c0-.2,0-.4,0-.59C285.457,446.493,278.187,439.788,269.249,439.788Z" fill="#0094da"/>
            <path id="Path_487" data-name="Path 487" d="M269.248,439.933c-8.9,0-16.156,6.666-16.355,14.48-.005.193-.006.382,0,.576a12.565,12.565,0,0,0,1.288,5.322c2.479-2.409,8.3-4.1,15.068-4.1s12.59,1.687,15.072,4.1a12.555,12.555,0,0,0,1.286-5.322c0-.2,0-.393,0-.59C285.4,446.59,278.155,439.933,269.248,439.933Z" fill="#0096db"/>
            <path id="Path_488" data-name="Path 488" d="M269.246,440.076c-8.871,0-16.1,6.618-16.31,14.352-.007.19-.007.38,0,.57a12.428,12.428,0,0,0,1.286,5.294c2.474-2.388,8.275-4.06,15.028-4.06s12.556,1.672,15.03,4.06A12.369,12.369,0,0,0,285.561,455c0-.195,0-.389,0-.583C285.338,446.685,278.119,440.076,269.246,440.076Z" fill="#09d"/>
            <path id="Path_489" data-name="Path 489" d="M269.243,440.22c-8.839,0-16.045,6.572-16.266,14.223,0,.19-.006.378,0,.565a12.217,12.217,0,0,0,1.283,5.263c2.468-2.365,8.254-4.021,14.987-4.021s12.522,1.656,14.991,4.021a12.212,12.212,0,0,0,1.281-5.263c0-.193,0-.385,0-.58C285.282,446.782,278.087,440.22,269.243,440.22Z" fill="#009bde"/>
            <path id="Path_490" data-name="Path 490" d="M269.243,440.361c-8.81,0-15.989,6.526-16.223,14.1-.007.188-.008.376-.005.562a12.087,12.087,0,0,0,1.278,5.231c2.463-2.341,8.233-3.982,14.95-3.982s12.486,1.641,14.947,3.982a12.039,12.039,0,0,0,1.28-5.231c0-.191,0-.384-.006-.576C285.223,446.875,278.051,440.361,269.243,440.361Z" fill="#009de0"/>
            <path id="Path_491" data-name="Path 491" d="M269.24,440.505c-8.777,0-15.935,6.476-16.177,13.967-.009.187-.009.374-.007.558a11.865,11.865,0,0,0,1.278,5.2c2.453-2.318,8.208-3.941,14.906-3.941s12.453,1.623,14.908,3.941a11.891,11.891,0,0,0,1.277-5.2c0-.189,0-.384-.006-.573C285.165,446.972,278.019,440.505,269.24,440.505Z" fill="#00a0e1"/>
            <path id="Path_492" data-name="Path 492" d="M269.237,440.649c-8.745,0-15.879,6.43-16.133,13.839-.005.186-.007.369-.005.554a11.715,11.715,0,0,0,1.271,5.166c2.449-2.3,8.187-3.9,14.867-3.9s12.421,1.606,14.868,3.9a11.676,11.676,0,0,0,1.273-5.166c0-.191,0-.38-.007-.571C285.108,447.069,277.986,440.649,269.237,440.649Z" fill="#00a2e3"/>
            <path id="Path_493" data-name="Path 493" d="M269.236,440.792c-8.715,0-15.824,6.384-16.089,13.709-.008.185-.009.368-.008.552a11.539,11.539,0,0,0,1.271,5.134c2.441-2.274,8.164-3.865,14.826-3.865s12.387,1.591,14.827,3.865a11.5,11.5,0,0,0,1.269-5.134c0-.19,0-.378-.008-.568C285.049,447.163,277.952,440.792,269.236,440.792Z" fill="#00a5e5"/>
            <path id="Path_494" data-name="Path 494" d="M269.234,440.936c-8.682,0-15.769,6.335-16.044,13.581-.008.183-.011.363-.009.548a11.363,11.363,0,0,0,1.267,5.1c2.436-2.252,8.141-3.824,14.786-3.824s12.354,1.572,14.785,3.824a11.287,11.287,0,0,0,1.268-5.1c0-.191,0-.377-.01-.565C284.991,447.261,277.92,440.935,269.234,440.936Z" fill="#00a7e6"/>
            <path id="Path_495" data-name="Path 495" d="M269.231,441.079c-8.653,0-15.713,6.288-16,13.454-.008.18-.01.362-.009.543a11.162,11.162,0,0,0,1.264,5.07c2.43-2.229,8.12-3.787,14.745-3.787s12.321,1.558,14.748,3.787a11.183,11.183,0,0,0,1.262-5.07c0-.187,0-.375-.01-.561C284.932,447.355,277.886,441.077,269.231,441.079Z" fill="#00aae8"/>
            <path id="Path_496" data-name="Path 496" d="M269.229,441.224c-8.62,0-15.657,6.239-15.954,13.323-.01.179-.012.36-.011.538a11.049,11.049,0,0,0,1.26,5.041c2.422-2.207,8.1-3.748,14.705-3.748s12.286,1.541,14.706,3.748a11.007,11.007,0,0,0,1.261-5.038c0-.188,0-.374-.011-.558C284.874,447.451,277.853,441.221,269.229,441.224Z" fill="#00acea"/>
            <path id="Path_497" data-name="Path 497" d="M269.228,441.364c-8.59,0-15.6,6.2-15.911,13.2-.01.178-.012.357-.011.534a10.847,10.847,0,0,0,1.256,5.009c2.416-2.185,8.076-3.711,14.666-3.711s12.252,1.526,14.664,3.711a10.851,10.851,0,0,0,1.257-5.009c0-.184,0-.371-.011-.552C284.817,447.549,277.819,441.364,269.228,441.364Z" fill="#00afeb"/>
            <path id="Path_498" data-name="Path 498" d="M269.224,441.509c-8.558,0-15.545,6.148-15.866,13.067-.007.178-.012.355-.012.531a10.716,10.716,0,0,0,1.254,4.977c2.41-2.162,8.056-3.671,14.624-3.671s12.221,1.509,14.626,3.671a10.664,10.664,0,0,0,1.254-4.975c0-.184-.005-.367-.013-.552C284.759,447.643,277.785,441.509,269.224,441.509Z" fill="#00b2ed"/>
            <path id="Path_499" data-name="Path 499" d="M269.224,441.652c-8.527,0-15.491,6.1-15.825,12.942-.008.174-.01.349-.01.525a10.531,10.531,0,0,0,1.25,4.945c2.4-2.139,8.032-3.633,14.585-3.633s12.183,1.494,14.582,3.633a10.518,10.518,0,0,0,1.253-4.944c0-.183-.005-.366-.014-.548C284.7,447.738,277.751,441.652,269.224,441.652Z" fill="#00b5ef"/>
            <path id="Path_500" data-name="Path 500" d="M269.221,456.449c6.537,0,12.152,1.477,14.543,3.594a10.346,10.346,0,0,0,1.248-4.911c0-6.969-7.065-13.336-15.791-13.336s-15.79,6.367-15.79,13.335a10.374,10.374,0,0,0,1.246,4.912C257.074,457.926,262.688,456.449,269.221,456.449Z" fill="#00baf2"/>
            <path id="Path_501" data-name="Path 501" d="M269.221,456.49c6.527,0,12.134,1.469,14.524,3.572a10.257,10.257,0,0,0,1.246-4.882c0-6.922-7.057-13.252-15.77-13.252s-15.771,6.33-15.771,13.25a10.271,10.271,0,0,0,1.247,4.884C257.09,457.959,262.7,456.491,269.221,456.49Z" fill="#12bbf3"/>
            <path id="Path_502" data-name="Path 502" d="M269.221,456.529c6.519,0,12.118,1.461,14.5,3.549a10.117,10.117,0,0,0,1.246-4.849c0-6.876-7.048-13.169-15.749-13.169s-15.749,6.293-15.749,13.167a10.133,10.133,0,0,0,1.246,4.851C257.105,457.99,262.7,456.529,269.221,456.529Z" fill="#23bdf3"/>
            <path id="Path_503" data-name="Path 503" d="M269.221,456.572c6.511,0,12.1,1.449,14.485,3.524a10.027,10.027,0,0,0,1.242-4.815c0-6.834-7.037-13.09-15.727-13.09s-15.726,6.256-15.726,13.089a10.023,10.023,0,0,0,1.243,4.816C257.122,458.021,262.715,456.573,269.221,456.572Z" fill="#2fbff4"/>
            <path id="Path_504" data-name="Path 504" d="M269.221,456.613c6.5,0,12.086,1.441,14.465,3.5a9.939,9.939,0,0,0,1.241-4.785c0-6.786-7.029-13.007-15.706-13.007s-15.706,6.221-15.706,13.005a9.949,9.949,0,0,0,1.241,4.787C257.138,458.054,262.722,456.613,269.221,456.613Z" fill="#39c1f4"/>
            <path id="Path_505" data-name="Path 505" d="M269.221,456.653c6.493,0,12.067,1.432,14.443,3.479a9.8,9.8,0,0,0,1.241-4.752c0-6.742-7.019-12.926-15.684-12.926s-15.685,6.184-15.685,12.925a9.855,9.855,0,0,0,1.238,4.753C257.156,458.085,262.731,456.653,269.221,456.653Z" fill="#42c3f4"/>
            <path id="Path_506" data-name="Path 506" d="M269.221,456.7c6.484,0,12.052,1.421,14.424,3.454a9.706,9.706,0,0,0,1.239-4.72c0-6.694-7.011-12.843-15.663-12.843s-15.661,6.149-15.661,12.843a9.714,9.714,0,0,0,1.234,4.72C257.172,458.116,262.74,456.7,269.221,456.7Z" fill="#4ac4f5"/>
            <path id="Path_507" data-name="Path 507" d="M269.221,456.737c6.475,0,12.035,1.41,14.4,3.428a9.593,9.593,0,0,0,1.236-4.686c0-6.652-7-12.759-15.641-12.759s-15.642,6.107-15.642,12.758a9.65,9.65,0,0,0,1.234,4.69C257.188,458.147,262.749,456.737,269.221,456.737Z" fill="#52c6f5"/>
            <path id="Path_508" data-name="Path 508" d="M269.221,456.776c6.465,0,12.018,1.4,14.385,3.409a9.508,9.508,0,0,0,1.235-4.655c0-6.606-6.991-12.679-15.62-12.679S253.6,448.924,253.6,455.529a9.521,9.521,0,0,0,1.233,4.656C257.2,458.181,262.757,456.778,269.221,456.776Z" fill="#5ac8f5"/>
            <path id="Path_509" data-name="Path 509" d="M269.221,456.818c6.458,0,12,1.392,14.367,3.385a9.411,9.411,0,0,0,1.232-4.624c0-6.561-6.981-12.6-15.6-12.6s-15.6,6.036-15.6,12.6a9.414,9.414,0,0,0,1.229,4.625C257.221,458.21,262.767,456.82,269.221,456.818Z" fill="#62caf6"/>
            <path id="Path_510" data-name="Path 510" d="M269.221,456.859c6.447,0,11.985,1.384,14.347,3.362a9.3,9.3,0,0,0,1.23-4.593c0-6.513-6.971-12.514-15.577-12.514s-15.577,6-15.577,12.512a9.3,9.3,0,0,0,1.228,4.6C257.237,458.243,262.776,456.859,269.221,456.859Z" fill="#69ccf6"/>
            <path id="Path_511" data-name="Path 511" d="M269.221,456.9c6.439,0,11.968,1.375,14.325,3.338a9.19,9.19,0,0,0,1.23-4.56c0-6.471-6.961-12.433-15.555-12.433s-15.558,5.965-15.558,12.433a9.207,9.207,0,0,0,1.227,4.56C257.253,458.275,262.784,456.9,269.221,456.9Z" fill="#70cef7"/>
            <path id="Path_512" data-name="Path 512" d="M269.221,456.941c6.431,0,11.951,1.365,14.308,3.317a9.133,9.133,0,0,0,1.226-4.53c0-6.423-6.953-12.35-15.534-12.35s-15.537,5.928-15.537,12.35a9.12,9.12,0,0,0,1.227,4.53C257.269,458.306,262.8,456.942,269.221,456.941Z" fill="#77d0f7"/>
            <path id="Path_513" data-name="Path 513" d="M269.221,456.981c6.421,0,11.935,1.355,14.287,3.294a9,9,0,0,0,1.226-4.5c0-6.377-6.945-12.268-15.513-12.268s-15.515,5.891-15.515,12.268a9,9,0,0,0,1.223,4.5C257.285,458.336,262.8,456.982,269.221,456.981Z" fill="#7ed3f8"/>
            <path id="Path_514" data-name="Path 514" d="M269.221,457.022c6.412,0,11.918,1.347,14.266,3.27a8.89,8.89,0,0,0,1.227-4.465c0-6.332-6.937-12.186-15.493-12.186s-15.493,5.854-15.493,12.186a8.887,8.887,0,0,0,1.222,4.465C257.3,458.369,262.811,457.024,269.221,457.022Z" fill="#85d5f8"/>
            <path id="Path_515" data-name="Path 515" d="M269.221,457.064c6.4,0,11.9,1.337,14.248,3.245a8.811,8.811,0,0,0,1.221-4.433c0-6.288-6.923-12.1-15.469-12.1s-15.473,5.816-15.473,12.1a8.79,8.79,0,0,0,1.221,4.433C257.319,458.4,262.818,457.065,269.221,457.064Z" fill="#8cd7f8"/>
            <path id="Path_516" data-name="Path 516" d="M269.22,457.105c6.394,0,11.885,1.329,14.229,3.222a8.7,8.7,0,0,0,1.221-4.4c0-6.243-6.917-12.022-15.45-12.022s-15.45,5.781-15.45,12.021a8.7,8.7,0,0,0,1.218,4.4C257.335,458.434,262.829,457.106,269.22,457.105Z" fill="#93d9f9"/>
            <path id="Path_517" data-name="Path 517" d="M269.221,457.145c6.383,0,11.867,1.319,14.21,3.2a8.646,8.646,0,0,0,1.216-4.371c0-6.2-6.907-11.937-15.426-11.937s-15.429,5.742-15.429,11.937a8.605,8.605,0,0,0,1.216,4.371C257.352,458.464,262.837,457.148,269.221,457.145Z" fill="#9adcf9"/>
            <path id="Path_518" data-name="Path 518" d="M269.221,457.188c6.376,0,11.852,1.306,14.187,3.177a8.5,8.5,0,0,0,1.218-4.339c0-6.153-6.9-11.859-15.4-11.859s-15.409,5.709-15.409,11.859a8.485,8.485,0,0,0,1.217,4.339C257.367,458.494,262.846,457.188,269.221,457.188Z" fill="#a1defa"/>
            <path id="Path_519" data-name="Path 519" d="M269.221,457.228c6.368,0,11.835,1.3,14.169,3.154a8.422,8.422,0,0,0,1.216-4.307c0-6.106-6.889-11.775-15.385-11.775s-15.386,5.671-15.386,11.775a8.408,8.408,0,0,0,1.212,4.307C257.385,458.527,262.854,457.23,269.221,457.228Z" fill="#a8e0fa"/>
            <path id="Path_520" data-name="Path 520" d="M269.221,457.269c6.36,0,11.818,1.289,14.149,3.131a8.33,8.33,0,0,0,1.215-4.275c0-6.06-6.88-11.693-15.364-11.693s-15.365,5.633-15.365,11.693a8.3,8.3,0,0,0,1.21,4.276C257.4,458.558,262.864,457.272,269.221,457.269Z" fill="#afe2fa"/>
            <path id="Path_521" data-name="Path 521" d="M269.221,457.311c6.351,0,11.8,1.279,14.129,3.107a8.207,8.207,0,0,0,1.211-4.243c0-6.016-6.867-11.612-15.34-11.612s-15.343,5.6-15.343,11.611a8.171,8.171,0,0,0,1.209,4.244C257.416,458.59,262.873,457.311,269.221,457.311Z" fill="#b6e5fb"/>
            <path id="Path_522" data-name="Path 522" d="M269.221,457.35c6.342,0,11.785,1.272,14.109,3.084a8.12,8.12,0,0,0,1.212-4.209c0-5.971-6.861-11.531-15.321-11.531S253.9,450.256,253.9,456.225a8.1,8.1,0,0,0,1.208,4.212C257.433,458.622,262.882,457.352,269.221,457.35Z" fill="#bde7fb"/>
            <path id="Path_523" data-name="Path 523" d="M269.221,457.391c6.332,0,11.767,1.262,14.09,3.062a8.022,8.022,0,0,0,1.21-4.178c0-5.925-6.852-11.449-15.3-11.449s-15.3,5.525-15.3,11.449a7.993,7.993,0,0,0,1.205,4.178C257.448,458.653,262.891,457.395,269.221,457.391Z" fill="#c3eafc"/>
            <path id="Path_524" data-name="Path 524" d="M269.221,457.432c6.325,0,11.75,1.254,14.072,3.038a7.949,7.949,0,0,0,1.207-4.144c0-5.881-6.842-11.368-15.279-11.368s-15.281,5.489-15.281,11.366a7.9,7.9,0,0,0,1.2,4.146C257.468,458.686,262.9,457.436,269.221,457.432Z" fill="#caecfc"/>
            <path id="Path_525" data-name="Path 525" d="M269.221,457.474c6.313,0,11.733,1.243,14.049,3.015a7.826,7.826,0,0,0,1.208-4.114c0-5.835-6.832-11.285-15.257-11.285s-15.259,5.452-15.259,11.284a7.807,7.807,0,0,0,1.2,4.116C257.481,458.717,262.908,457.477,269.221,457.474Z" fill="#d1eefc"/>
            <path id="Path_526" data-name="Path 526" d="M269.221,457.515c6.3,0,11.717,1.233,14.032,2.991a7.742,7.742,0,0,0,1.2-4.083c0-5.787-6.824-11.2-15.235-11.2s-15.237,5.418-15.237,11.2a7.718,7.718,0,0,0,1.2,4.085C257.5,458.748,262.917,457.517,269.221,457.515Z" fill="#d8f1fd"/>
            <path id="Path_527" data-name="Path 527" d="M269.221,457.558c6.3,0,11.7,1.221,14.011,2.966a7.646,7.646,0,0,0,1.2-4.05c0-5.743-6.813-11.121-15.214-11.121s-15.216,5.379-15.216,11.121a7.616,7.616,0,0,0,1.2,4.052C257.514,458.779,262.925,457.558,269.221,457.558Z" fill="#dff3fd"/>
            <path id="Path_528" data-name="Path 528" d="M269.221,457.6c6.288,0,11.683,1.216,13.992,2.944a7.546,7.546,0,0,0,1.2-4.016c0-5.7-6.8-11.039-15.192-11.039s-15.194,5.341-15.194,11.039a7.541,7.541,0,0,0,1.194,4.02C257.533,458.812,262.934,457.6,269.221,457.6Z" fill="#e6f6fe"/>
            <path id="Path_529" data-name="Path 529" d="M269.221,457.637c6.28,0,11.668,1.207,13.97,2.923a7.449,7.449,0,0,0,1.2-3.987c0-5.653-6.795-10.957-15.17-10.957s-15.172,5.308-15.172,10.957a7.4,7.4,0,0,0,1.193,3.987C257.548,458.844,262.943,457.64,269.221,457.637Z" fill="#edf8fe"/>
            <path id="Path_530" data-name="Path 530" d="M269.221,457.681c6.271,0,11.651,1.2,13.951,2.9a7.361,7.361,0,0,0,1.2-3.955c0-5.607-6.787-10.874-15.15-10.874s-15.152,5.271-15.152,10.874a7.351,7.351,0,0,0,1.191,3.958C257.563,458.876,262.952,457.682,269.221,457.681Z" fill="#f4fbfe"/>
            <path id="Path_531" data-name="Path 531" d="M269.221,457.721c6.262,0,11.634,1.186,13.934,2.875a7.3,7.3,0,0,0,1.2-3.924c0-5.562-6.776-10.791-15.129-10.791s-15.13,5.231-15.13,10.791a7.252,7.252,0,0,0,1.19,3.926C257.58,458.907,262.962,457.723,269.221,457.721Z" fill="#fff"/>
          </g>
        </g>
      </g>
    </g>
    <path id="Path_533" data-name="Path 533" d="M269.428,452.168a42.55,42.55,0,0,0-14.765,2.5,16.171,16.171,0,0,0,29.537,0A42.608,42.608,0,0,0,269.428,452.168Z" fill="#0072c0"/>
  </g>
</svg>
